<svg xmlns="http://www.w3.org/2000/svg" xmlns:xlink="http://www.w3.org/1999/xlink" width="167" zoomAndPan="magnify" viewBox="0 0 125.25 52.499999" height="70" preserveAspectRatio="xMidYMid meet" version="1.0"><defs><g/><clipPath id="id1"><path d="M 6 24 L 22.507812 24 L 22.507812 36.402344 L 6 36.402344 Z M 6 24 " clip-rule="nonzero"/></clipPath><clipPath id="id2"><path d="M 5.417969 15.601562 L 22 15.601562 L 22 26 L 5.417969 26 Z M 5.417969 15.601562 " clip-rule="nonzero"/></clipPath></defs><path fill="#000000" d="M 12.84375 33.460938 L 17.175781 30.9375 C 17.632812 30.671875 17.632812 30.011719 17.175781 29.75 L 12.84375 27.222656 C 12.390625 26.960938 11.824219 27.289062 11.824219 27.816406 L 11.824219 32.867188 C 11.824219 33.394531 12.390625 33.722656 12.84375 33.460938 " fill-opacity="1" fill-rule="nonzero"/><g clip-path="url(#id1)"><path fill="#000000" d="M 8.019531 35.214844 L 21.324219 35.214844 L 21.324219 25.46875 L 8.019531 25.46875 Z M 22.503906 36.402344 L 6.839844 36.402344 L 6.839844 24.28125 L 22.503906 24.28125 L 22.503906 36.402344 " fill-opacity="1" fill-rule="nonzero"/></g><g clip-path="url(#id2)"><path fill="#000000" d="M 20.019531 20.222656 L 20.304688 18.9375 L 20.605469 20.066406 Z M 7.296875 20.417969 L 7.050781 21.535156 L 6.789062 20.554688 Z M 18.34375 17.429688 L 19.5 17.117188 L 18.734375 20.570312 L 17.578125 20.882812 Z M 15.902344 18.089844 L 17.058594 17.777344 L 16.296875 21.230469 L 15.140625 21.542969 Z M 13.460938 18.75 L 14.617188 18.4375 L 13.855469 21.890625 L 12.699219 22.203125 Z M 8.972656 23.207031 L 7.820312 23.519531 L 8.582031 20.070312 L 9.738281 19.757812 Z M 11.023438 19.410156 L 12.175781 19.097656 L 11.414062 22.550781 L 10.257812 22.859375 Z M 5.425781 19.691406 L 6.839844 25.015625 L 21.96875 20.925781 L 20.554688 15.601562 L 5.425781 19.691406 " fill-opacity="1" fill-rule="nonzero"/></g><g fill="#000000" fill-opacity="1"><g transform="translate(26.413931, 31.945753)"><g><path d="M 7.015625 -4.40625 C 6.691406 -3.34375 6.457031 -2.695312 6.3125 -2.46875 C 6.101562 -2.1875 5.832031 -2.046875 5.5 -2.046875 C 5.25 -2.046875 5.003906 -2.125 4.765625 -2.28125 C 4.523438 -2.445312 4.359375 -2.660156 4.265625 -2.921875 C 3.679688 -4.429688 3.347656 -5.335938 3.265625 -5.640625 L 3.046875 -5.59375 C 3.085938 -5.207031 3.316406 -4.082031 3.734375 -2.21875 L 3.90625 -1.421875 C 4.050781 -1.210938 4.125 -1 4.125 -0.78125 C 4.125 -0.445312 3.960938 -0.171875 3.640625 0.046875 C 3.316406 0.265625 2.984375 0.375 2.640625 0.375 C 2.242188 0.375 1.921875 0.132812 1.671875 -0.34375 C 1.429688 -0.820312 1.3125 -1.273438 1.3125 -1.703125 C 1.175781 -2.097656 1.054688 -2.992188 0.953125 -4.390625 C 0.859375 -5.785156 0.8125 -6.921875 0.8125 -7.796875 L 0.8125 -10.96875 C 0.8125 -11.238281 0.90625 -11.46875 1.09375 -11.65625 C 1.289062 -11.851562 1.53125 -11.953125 1.8125 -11.953125 C 2.082031 -11.953125 2.3125 -11.851562 2.5 -11.65625 C 2.695312 -11.46875 2.796875 -11.238281 2.796875 -10.96875 L 2.796875 -10.84375 C 2.847656 -10.851562 2.921875 -10.859375 3.015625 -10.859375 C 3.460938 -10.859375 3.859375 -10.515625 4.203125 -9.828125 C 4.546875 -9.148438 5 -7.84375 5.5625 -5.90625 C 5.914062 -7.03125 6.128906 -7.804688 6.203125 -8.234375 C 6.554688 -9.921875 6.75 -10.828125 6.78125 -10.953125 C 6.863281 -11.398438 7.066406 -11.625 7.390625 -11.625 C 7.816406 -11.625 8.257812 -11.421875 8.71875 -11.015625 C 8.925781 -10.492188 9.03125 -8.703125 9.03125 -5.640625 L 9.03125 -2.21875 C 9.03125 -2.195312 9.0625 -1.875 9.125 -1.25 C 9.195312 -0.632812 9.234375 -0.242188 9.234375 -0.078125 C 9.242188 0.203125 9.148438 0.441406 8.953125 0.640625 C 8.765625 0.835938 8.53125 0.9375 8.25 0.9375 C 7.976562 0.9375 7.742188 0.84375 7.546875 0.65625 C 7.359375 0.46875 7.257812 0.242188 7.25 -0.015625 L 7.234375 -0.484375 L 7.21875 -4.453125 L 7.21875 -4.46875 Z M 7.015625 -4.40625 "/></g></g></g><g fill="#000000" fill-opacity="1"><g transform="translate(36.450145, 31.945753)"><g><path d="M 1.296875 -5.484375 C 0.972656 -5.671875 0.8125 -5.957031 0.8125 -6.34375 C 0.8125 -6.632812 0.925781 -6.90625 1.15625 -7.15625 C 1.382812 -7.40625 1.679688 -7.578125 2.046875 -7.671875 C 2.203125 -7.835938 2.367188 -7.941406 2.546875 -7.984375 C 2.628906 -8.003906 2.738281 -8.035156 2.875 -8.078125 C 3.007812 -8.117188 3.097656 -8.144531 3.140625 -8.15625 C 3.191406 -8.164062 3.257812 -8.179688 3.34375 -8.203125 C 3.425781 -8.222656 3.484375 -8.234375 3.515625 -8.234375 C 3.554688 -8.234375 3.617188 -8.238281 3.703125 -8.25 C 3.796875 -8.257812 3.878906 -8.265625 3.953125 -8.265625 C 4.035156 -8.265625 4.144531 -8.265625 4.28125 -8.265625 C 5.15625 -8.265625 5.769531 -7.867188 6.125 -7.078125 C 6.488281 -6.285156 6.6875 -5.171875 6.71875 -3.734375 L 6.71875 -1.015625 C 6.71875 -0.742188 6.617188 -0.507812 6.421875 -0.3125 C 6.234375 -0.125 6.003906 -0.03125 5.734375 -0.03125 C 5.367188 -0.03125 5.085938 -0.1875 4.890625 -0.5 C 4.335938 -0.164062 3.789062 0 3.25 0 C 2.613281 0 2.09375 -0.140625 1.6875 -0.421875 C 1.28125 -0.703125 1.078125 -1.109375 1.078125 -1.640625 C 1.078125 -2.546875 1.382812 -3.414062 2 -4.25 C 2.625 -5.09375 3.316406 -5.535156 4.078125 -5.578125 C 4.015625 -5.703125 3.957031 -5.796875 3.90625 -5.859375 C 3.300781 -5.859375 2.863281 -5.828125 2.59375 -5.765625 C 2.394531 -5.492188 2.128906 -5.359375 1.796875 -5.359375 C 1.597656 -5.359375 1.429688 -5.398438 1.296875 -5.484375 Z M 4.203125 -3.59375 L 4.109375 -3.5625 C 4.023438 -3.5 3.929688 -3.414062 3.828125 -3.3125 C 3.753906 -3.226562 3.609375 -3.046875 3.390625 -2.765625 C 3.285156 -2.578125 3.207031 -2.4375 3.15625 -2.34375 C 3.050781 -2.070312 3 -1.867188 3 -1.734375 C 2.988281 -1.703125 2.984375 -1.671875 2.984375 -1.640625 C 3.003906 -1.628906 3.046875 -1.625 3.109375 -1.625 C 3.234375 -1.625 3.347656 -1.640625 3.453125 -1.671875 C 3.585938 -1.734375 3.6875 -1.789062 3.75 -1.84375 L 4.1875 -2.0625 L 4.4375 -2.234375 L 4.40625 -3.59375 Z M 4.203125 -3.59375 "/></g></g></g><g fill="#000000" fill-opacity="1"><g transform="translate(43.969228, 31.945753)"><g><path d="M 7.96875 -4.859375 C 7.976562 -4.660156 7.984375 -4.320312 7.984375 -3.84375 C 7.984375 -2.9375 7.960938 -1.96875 7.921875 -0.9375 C 7.910156 -0.664062 7.800781 -0.441406 7.59375 -0.265625 C 7.394531 -0.0859375 7.175781 0 6.9375 0 C 6.625 0 6.375 -0.101562 6.1875 -0.3125 C 6 -0.519531 5.914062 -0.769531 5.9375 -1.0625 C 5.976562 -1.875 6 -2.722656 6 -3.609375 C 6 -4.429688 5.96875 -5.015625 5.90625 -5.359375 C 5.851562 -5.710938 5.734375 -5.953125 5.546875 -6.078125 C 5.015625 -5.753906 4.421875 -5.171875 3.765625 -4.328125 C 3.847656 -3.128906 3.890625 -2.515625 3.890625 -2.484375 C 3.890625 -2.410156 3.882812 -2.316406 3.875 -2.203125 C 3.875 -2.085938 3.867188 -1.925781 3.859375 -1.71875 C 3.859375 -1.519531 3.859375 -1.316406 3.859375 -1.109375 L 3.6875 -0.203125 C 3.457031 0.140625 3.164062 0.3125 2.8125 0.3125 C 2.5 0.3125 2.222656 0.21875 1.984375 0.03125 C 1.753906 -0.144531 1.601562 -0.382812 1.53125 -0.6875 C 1.519531 -0.757812 1.507812 -0.796875 1.5 -0.796875 C 1.5 -0.804688 1.492188 -0.820312 1.484375 -0.84375 C 1.484375 -0.875 1.476562 -0.90625 1.46875 -0.9375 C 1.457031 -0.96875 1.4375 -1.039062 1.40625 -1.15625 C 1.375 -1.269531 1.335938 -1.410156 1.296875 -1.578125 C 0.972656 -2.753906 0.8125 -4.085938 0.8125 -5.578125 C 0.8125 -6.316406 0.816406 -6.890625 0.828125 -7.296875 C 0.847656 -7.765625 0.941406 -8.160156 1.109375 -8.484375 C 1.285156 -8.816406 1.53125 -9.03125 1.84375 -9.125 C 1.96875 -9.144531 2.054688 -9.15625 2.109375 -9.15625 C 2.242188 -9.15625 2.359375 -9.132812 2.453125 -9.09375 C 2.554688 -9.113281 2.679688 -9.125 2.828125 -9.125 C 3.097656 -9.125 3.332031 -9.023438 3.53125 -8.828125 C 3.726562 -8.628906 3.828125 -8.398438 3.828125 -8.140625 C 3.828125 -7.921875 3.765625 -7.738281 3.640625 -7.59375 C 4.171875 -8.144531 4.769531 -8.539062 5.4375 -8.78125 C 5.738281 -8.78125 6.003906 -8.765625 6.234375 -8.734375 C 6.460938 -8.710938 6.664062 -8.648438 6.84375 -8.546875 C 7.019531 -8.453125 7.164062 -8.363281 7.28125 -8.28125 C 7.394531 -8.207031 7.492188 -8.066406 7.578125 -7.859375 C 7.660156 -7.660156 7.722656 -7.488281 7.765625 -7.34375 C 7.816406 -7.207031 7.851562 -6.976562 7.875 -6.65625 C 7.90625 -6.332031 7.925781 -6.0625 7.9375 -5.84375 C 7.945312 -5.625 7.957031 -5.296875 7.96875 -4.859375 Z M 7.96875 -4.859375 "/></g></g></g><g fill="#000000" fill-opacity="1"><g transform="translate(52.763014, 31.945753)"><g><path d="M 3.609375 -0.21875 C 3.828125 -0.0703125 4.113281 0 4.46875 0 C 5.28125 0 5.898438 -0.351562 6.328125 -1.0625 C 6.765625 -1.78125 6.992188 -2.765625 7.015625 -4.015625 C 7.085938 -4.835938 7.125 -5.460938 7.125 -5.890625 C 7.125 -6.242188 7.117188 -6.472656 7.109375 -6.578125 C 7.046875 -7.273438 6.726562 -7.835938 6.15625 -8.265625 C 5.59375 -8.703125 4.921875 -8.921875 4.140625 -8.921875 C 3.003906 -8.921875 2.242188 -8.519531 1.859375 -7.71875 C 1.578125 -7.269531 1.332031 -6.742188 1.125 -6.140625 C 0.914062 -5.546875 0.8125 -5.050781 0.8125 -4.65625 C 0.8125 -3.582031 1.140625 -2.546875 1.796875 -1.546875 C 1.960938 -1.222656 2.226562 -0.914062 2.59375 -0.625 C 2.96875 -0.332031 3.304688 -0.195312 3.609375 -0.21875 Z M 4.25 -6.921875 C 4.632812 -6.921875 4.921875 -6.765625 5.109375 -6.453125 C 5.117188 -6.335938 5.125 -5.96875 5.125 -5.34375 C 5.125 -3.78125 4.957031 -2.707031 4.625 -2.125 C 4.164062 -2.457031 3.914062 -2.941406 3.875 -3.578125 C 3.851562 -4.160156 3.84375 -4.6875 3.84375 -5.15625 C 3.84375 -6.394531 3.960938 -6.992188 4.203125 -6.953125 C 4.234375 -6.929688 4.25 -6.921875 4.25 -6.921875 Z M 4.25 -6.921875 "/></g></g></g><g fill="#000000" fill-opacity="1"><g transform="translate(60.685482, 31.945753)"><g><path d="M 8.265625 0.015625 C 8.265625 0.296875 8.171875 0.53125 7.984375 0.71875 C 7.796875 0.90625 7.5625 1 7.28125 1 C 7.09375 1 6.941406 0.96875 6.828125 0.90625 C 6.722656 0.851562 6.632812 0.785156 6.5625 0.703125 C 6.5 0.617188 6.375 0.4375 6.1875 0.15625 C 6 -0.125 5.820312 -0.378906 5.65625 -0.609375 C 5.457031 -0.867188 5.164062 -1.332031 4.78125 -2 C 4.40625 -2.675781 4.140625 -3.191406 3.984375 -3.546875 L 3.796875 -3.453125 C 3.796875 -3.285156 3.816406 -2.898438 3.859375 -2.296875 C 3.898438 -1.347656 3.921875 -0.820312 3.921875 -0.71875 C 3.921875 -0.382812 3.882812 -0.171875 3.8125 -0.078125 C 3.75 0.015625 3.601562 0.0625 3.375 0.0625 C 3.332031 0.0625 3.253906 0.0507812 3.140625 0.03125 C 3.023438 0.0625 2.921875 0.078125 2.828125 0.078125 C 2.460938 0.078125 2.117188 -0.164062 1.796875 -0.65625 C 1.472656 -1.15625 1.226562 -1.726562 1.0625 -2.375 C 0.894531 -3.019531 0.8125 -3.617188 0.8125 -4.171875 C 0.8125 -5.710938 0.835938 -6.925781 0.890625 -7.8125 C 0.890625 -8.175781 0.953125 -8.859375 1.078125 -9.859375 C 1.203125 -10.867188 1.304688 -11.476562 1.390625 -11.6875 C 1.640625 -12.226562 1.976562 -12.5 2.40625 -12.5 C 2.519531 -12.5 2.644531 -12.46875 2.78125 -12.40625 C 2.925781 -12.351562 3.035156 -12.273438 3.109375 -12.171875 C 3.867188 -12.171875 4.390625 -12.125 4.671875 -12.03125 C 4.960938 -11.945312 5.289062 -11.757812 5.65625 -11.46875 C 6.40625 -10.851562 6.78125 -10.015625 6.78125 -8.953125 C 6.78125 -8.296875 6.707031 -7.789062 6.5625 -7.4375 C 6.425781 -7.09375 6.046875 -6.398438 5.421875 -5.359375 C 6.203125 -3.492188 6.890625 -2.203125 7.484375 -1.484375 C 8.003906 -0.753906 8.265625 -0.253906 8.265625 0.015625 Z M 4.6875 -7.90625 C 4.757812 -8.050781 4.796875 -8.257812 4.796875 -8.53125 L 4.796875 -8.953125 C 4.796875 -9.035156 4.785156 -9.148438 4.765625 -9.296875 C 4.765625 -9.316406 4.757812 -9.34375 4.75 -9.375 C 4.75 -9.40625 4.742188 -9.429688 4.734375 -9.453125 C 4.597656 -9.691406 4.484375 -9.851562 4.390625 -9.9375 L 3.640625 -10.34375 C 3.554688 -9.445312 3.515625 -8.660156 3.515625 -7.984375 C 3.515625 -7.785156 3.523438 -7.40625 3.546875 -6.84375 C 3.703125 -6.90625 3.894531 -7.035156 4.125 -7.234375 C 4.351562 -7.441406 4.539062 -7.664062 4.6875 -7.90625 Z M 4.6875 -7.90625 "/></g></g></g><g fill="#000000" fill-opacity="1"><g transform="translate(69.753569, 31.945753)"><g><path d="M 1.296875 -5.484375 C 0.972656 -5.671875 0.8125 -5.957031 0.8125 -6.34375 C 0.8125 -6.632812 0.925781 -6.90625 1.15625 -7.15625 C 1.382812 -7.40625 1.679688 -7.578125 2.046875 -7.671875 C 2.203125 -7.835938 2.367188 -7.941406 2.546875 -7.984375 C 2.628906 -8.003906 2.738281 -8.035156 2.875 -8.078125 C 3.007812 -8.117188 3.097656 -8.144531 3.140625 -8.15625 C 3.191406 -8.164062 3.257812 -8.179688 3.34375 -8.203125 C 3.425781 -8.222656 3.484375 -8.234375 3.515625 -8.234375 C 3.554688 -8.234375 3.617188 -8.238281 3.703125 -8.25 C 3.796875 -8.257812 3.878906 -8.265625 3.953125 -8.265625 C 4.035156 -8.265625 4.144531 -8.265625 4.28125 -8.265625 C 5.15625 -8.265625 5.769531 -7.867188 6.125 -7.078125 C 6.488281 -6.285156 6.6875 -5.171875 6.71875 -3.734375 L 6.71875 -1.015625 C 6.71875 -0.742188 6.617188 -0.507812 6.421875 -0.3125 C 6.234375 -0.125 6.003906 -0.03125 5.734375 -0.03125 C 5.367188 -0.03125 5.085938 -0.1875 4.890625 -0.5 C 4.335938 -0.164062 3.789062 0 3.25 0 C 2.613281 0 2.09375 -0.140625 1.6875 -0.421875 C 1.28125 -0.703125 1.078125 -1.109375 1.078125 -1.640625 C 1.078125 -2.546875 1.382812 -3.414062 2 -4.25 C 2.625 -5.09375 3.316406 -5.535156 4.078125 -5.578125 C 4.015625 -5.703125 3.957031 -5.796875 3.90625 -5.859375 C 3.300781 -5.859375 2.863281 -5.828125 2.59375 -5.765625 C 2.394531 -5.492188 2.128906 -5.359375 1.796875 -5.359375 C 1.597656 -5.359375 1.429688 -5.398438 1.296875 -5.484375 Z M 4.203125 -3.59375 L 4.109375 -3.5625 C 4.023438 -3.5 3.929688 -3.414062 3.828125 -3.3125 C 3.753906 -3.226562 3.609375 -3.046875 3.390625 -2.765625 C 3.285156 -2.578125 3.207031 -2.4375 3.15625 -2.34375 C 3.050781 -2.070312 3 -1.867188 3 -1.734375 C 2.988281 -1.703125 2.984375 -1.671875 2.984375 -1.640625 C 3.003906 -1.628906 3.046875 -1.625 3.109375 -1.625 C 3.234375 -1.625 3.347656 -1.640625 3.453125 -1.671875 C 3.585938 -1.734375 3.6875 -1.789062 3.75 -1.84375 L 4.1875 -2.0625 L 4.4375 -2.234375 L 4.40625 -3.59375 Z M 4.203125 -3.59375 "/></g></g></g><g fill="#000000" fill-opacity="1"><g transform="translate(77.272652, 31.945753)"><g><path d="M 7.96875 -4.859375 C 7.976562 -4.660156 7.984375 -4.320312 7.984375 -3.84375 C 7.984375 -2.9375 7.960938 -1.96875 7.921875 -0.9375 C 7.910156 -0.664062 7.800781 -0.441406 7.59375 -0.265625 C 7.394531 -0.0859375 7.175781 0 6.9375 0 C 6.625 0 6.375 -0.101562 6.1875 -0.3125 C 6 -0.519531 5.914062 -0.769531 5.9375 -1.0625 C 5.976562 -1.875 6 -2.722656 6 -3.609375 C 6 -4.429688 5.96875 -5.015625 5.90625 -5.359375 C 5.851562 -5.710938 5.734375 -5.953125 5.546875 -6.078125 C 5.015625 -5.753906 4.421875 -5.171875 3.765625 -4.328125 C 3.847656 -3.128906 3.890625 -2.515625 3.890625 -2.484375 C 3.890625 -2.410156 3.882812 -2.316406 3.875 -2.203125 C 3.875 -2.085938 3.867188 -1.925781 3.859375 -1.71875 C 3.859375 -1.519531 3.859375 -1.316406 3.859375 -1.109375 L 3.6875 -0.203125 C 3.457031 0.140625 3.164062 0.3125 2.8125 0.3125 C 2.5 0.3125 2.222656 0.21875 1.984375 0.03125 C 1.753906 -0.144531 1.601562 -0.382812 1.53125 -0.6875 C 1.519531 -0.757812 1.507812 -0.796875 1.5 -0.796875 C 1.5 -0.804688 1.492188 -0.820312 1.484375 -0.84375 C 1.484375 -0.875 1.476562 -0.90625 1.46875 -0.9375 C 1.457031 -0.96875 1.4375 -1.039062 1.40625 -1.15625 C 1.375 -1.269531 1.335938 -1.410156 1.296875 -1.578125 C 0.972656 -2.753906 0.8125 -4.085938 0.8125 -5.578125 C 0.8125 -6.316406 0.816406 -6.890625 0.828125 -7.296875 C 0.847656 -7.765625 0.941406 -8.160156 1.109375 -8.484375 C 1.285156 -8.816406 1.53125 -9.03125 1.84375 -9.125 C 1.96875 -9.144531 2.054688 -9.15625 2.109375 -9.15625 C 2.242188 -9.15625 2.359375 -9.132812 2.453125 -9.09375 C 2.554688 -9.113281 2.679688 -9.125 2.828125 -9.125 C 3.097656 -9.125 3.332031 -9.023438 3.53125 -8.828125 C 3.726562 -8.628906 3.828125 -8.398438 3.828125 -8.140625 C 3.828125 -7.921875 3.765625 -7.738281 3.640625 -7.59375 C 4.171875 -8.144531 4.769531 -8.539062 5.4375 -8.78125 C 5.738281 -8.78125 6.003906 -8.765625 6.234375 -8.734375 C 6.460938 -8.710938 6.664062 -8.648438 6.84375 -8.546875 C 7.019531 -8.453125 7.164062 -8.363281 7.28125 -8.28125 C 7.394531 -8.207031 7.492188 -8.066406 7.578125 -7.859375 C 7.660156 -7.660156 7.722656 -7.488281 7.765625 -7.34375 C 7.816406 -7.207031 7.851562 -6.976562 7.875 -6.65625 C 7.90625 -6.332031 7.925781 -6.0625 7.9375 -5.84375 C 7.945312 -5.625 7.957031 -5.296875 7.96875 -4.859375 Z M 7.96875 -4.859375 "/></g></g></g><g fill="#000000" fill-opacity="1"><g transform="translate(86.066438, 31.945753)"><g><path d="M 3.875 -11.890625 C 4.320312 -11.890625 4.675781 -11.773438 4.9375 -11.546875 C 5.195312 -11.328125 5.328125 -11.023438 5.328125 -10.640625 C 5.328125 -10.265625 5.171875 -9.945312 4.859375 -9.6875 C 4.554688 -9.425781 4.207031 -9.296875 3.8125 -9.296875 C 3.394531 -9.296875 3.03125 -9.425781 2.71875 -9.6875 C 2.40625 -9.957031 2.25 -10.296875 2.25 -10.703125 C 2.25 -11.046875 2.367188 -11.335938 2.609375 -11.578125 C 2.859375 -11.816406 3.160156 -11.9375 3.515625 -11.9375 C 3.628906 -11.9375 3.75 -11.921875 3.875 -11.890625 Z M 5.671875 -7.421875 C 5.953125 -7.578125 6.09375 -7.769531 6.09375 -8 C 6.09375 -8.070312 6.070312 -8.171875 6.03125 -8.296875 C 5.851562 -8.722656 5.191406 -8.9375 4.046875 -8.9375 C 3.648438 -8.9375 3.335938 -8.875 3.109375 -8.75 C 2.890625 -8.632812 2.78125 -8.46875 2.78125 -8.25 C 2.78125 -8.175781 2.796875 -8.085938 2.828125 -7.984375 C 2.828125 -7.078125 2.832031 -5.828125 2.84375 -4.234375 C 2.851562 -2.648438 2.859375 -1.457031 2.859375 -0.65625 C 2.859375 0.09375 2.726562 0.640625 2.46875 0.984375 C 2.375 0.898438 2.15625 0.859375 1.8125 0.859375 C 1.539062 0.859375 1.304688 0.945312 1.109375 1.125 C 0.910156 1.3125 0.8125 1.546875 0.8125 1.828125 C 0.8125 2.484375 1.300781 2.859375 2.28125 2.953125 C 2.4375 2.992188 2.617188 3.015625 2.828125 3.015625 C 3.335938 3.015625 3.820312 2.859375 4.28125 2.546875 C 4.613281 2.304688 4.882812 1.828125 5.09375 1.109375 C 5.164062 0.910156 5.25 0.707031 5.34375 0.5 C 5.445312 0.226562 5.535156 -0.132812 5.609375 -0.59375 C 5.691406 -1.050781 5.734375 -1.421875 5.734375 -1.703125 L 5.671875 -7.234375 Z M 5.671875 -7.421875 "/></g></g></g><g fill="#000000" fill-opacity="1"><g transform="translate(92.972384, 31.945753)"><g><path d="M 1.296875 -5.484375 C 0.972656 -5.671875 0.8125 -5.957031 0.8125 -6.34375 C 0.8125 -6.632812 0.925781 -6.90625 1.15625 -7.15625 C 1.382812 -7.40625 1.679688 -7.578125 2.046875 -7.671875 C 2.203125 -7.835938 2.367188 -7.941406 2.546875 -7.984375 C 2.628906 -8.003906 2.738281 -8.035156 2.875 -8.078125 C 3.007812 -8.117188 3.097656 -8.144531 3.140625 -8.15625 C 3.191406 -8.164062 3.257812 -8.179688 3.34375 -8.203125 C 3.425781 -8.222656 3.484375 -8.234375 3.515625 -8.234375 C 3.554688 -8.234375 3.617188 -8.238281 3.703125 -8.25 C 3.796875 -8.257812 3.878906 -8.265625 3.953125 -8.265625 C 4.035156 -8.265625 4.144531 -8.265625 4.28125 -8.265625 C 5.15625 -8.265625 5.769531 -7.867188 6.125 -7.078125 C 6.488281 -6.285156 6.6875 -5.171875 6.71875 -3.734375 L 6.71875 -1.015625 C 6.71875 -0.742188 6.617188 -0.507812 6.421875 -0.3125 C 6.234375 -0.125 6.003906 -0.03125 5.734375 -0.03125 C 5.367188 -0.03125 5.085938 -0.1875 4.890625 -0.5 C 4.335938 -0.164062 3.789062 0 3.25 0 C 2.613281 0 2.09375 -0.140625 1.6875 -0.421875 C 1.28125 -0.703125 1.078125 -1.109375 1.078125 -1.640625 C 1.078125 -2.546875 1.382812 -3.414062 2 -4.25 C 2.625 -5.09375 3.316406 -5.535156 4.078125 -5.578125 C 4.015625 -5.703125 3.957031 -5.796875 3.90625 -5.859375 C 3.300781 -5.859375 2.863281 -5.828125 2.59375 -5.765625 C 2.394531 -5.492188 2.128906 -5.359375 1.796875 -5.359375 C 1.597656 -5.359375 1.429688 -5.398438 1.296875 -5.484375 Z M 4.203125 -3.59375 L 4.109375 -3.5625 C 4.023438 -3.5 3.929688 -3.414062 3.828125 -3.3125 C 3.753906 -3.226562 3.609375 -3.046875 3.390625 -2.765625 C 3.285156 -2.578125 3.207031 -2.4375 3.15625 -2.34375 C 3.050781 -2.070312 3 -1.867188 3 -1.734375 C 2.988281 -1.703125 2.984375 -1.671875 2.984375 -1.640625 C 3.003906 -1.628906 3.046875 -1.625 3.109375 -1.625 C 3.234375 -1.625 3.347656 -1.640625 3.453125 -1.671875 C 3.585938 -1.734375 3.6875 -1.789062 3.75 -1.84375 L 4.1875 -2.0625 L 4.4375 -2.234375 L 4.40625 -3.59375 Z M 4.203125 -3.59375 "/></g></g></g><g fill="#000000" fill-opacity="1"><g transform="translate(100.491468, 31.945753)"><g><path d="M 7.96875 -4.859375 C 7.976562 -4.660156 7.984375 -4.320312 7.984375 -3.84375 C 7.984375 -2.9375 7.960938 -1.96875 7.921875 -0.9375 C 7.910156 -0.664062 7.800781 -0.441406 7.59375 -0.265625 C 7.394531 -0.0859375 7.175781 0 6.9375 0 C 6.625 0 6.375 -0.101562 6.1875 -0.3125 C 6 -0.519531 5.914062 -0.769531 5.9375 -1.0625 C 5.976562 -1.875 6 -2.722656 6 -3.609375 C 6 -4.429688 5.96875 -5.015625 5.90625 -5.359375 C 5.851562 -5.710938 5.734375 -5.953125 5.546875 -6.078125 C 5.015625 -5.753906 4.421875 -5.171875 3.765625 -4.328125 C 3.847656 -3.128906 3.890625 -2.515625 3.890625 -2.484375 C 3.890625 -2.410156 3.882812 -2.316406 3.875 -2.203125 C 3.875 -2.085938 3.867188 -1.925781 3.859375 -1.71875 C 3.859375 -1.519531 3.859375 -1.316406 3.859375 -1.109375 L 3.6875 -0.203125 C 3.457031 0.140625 3.164062 0.3125 2.8125 0.3125 C 2.5 0.3125 2.222656 0.21875 1.984375 0.03125 C 1.753906 -0.144531 1.601562 -0.382812 1.53125 -0.6875 C 1.519531 -0.757812 1.507812 -0.796875 1.5 -0.796875 C 1.5 -0.804688 1.492188 -0.820312 1.484375 -0.84375 C 1.484375 -0.875 1.476562 -0.90625 1.46875 -0.9375 C 1.457031 -0.96875 1.4375 -1.039062 1.40625 -1.15625 C 1.375 -1.269531 1.335938 -1.410156 1.296875 -1.578125 C 0.972656 -2.753906 0.8125 -4.085938 0.8125 -5.578125 C 0.8125 -6.316406 0.816406 -6.890625 0.828125 -7.296875 C 0.847656 -7.765625 0.941406 -8.160156 1.109375 -8.484375 C 1.285156 -8.816406 1.53125 -9.03125 1.84375 -9.125 C 1.96875 -9.144531 2.054688 -9.15625 2.109375 -9.15625 C 2.242188 -9.15625 2.359375 -9.132812 2.453125 -9.09375 C 2.554688 -9.113281 2.679688 -9.125 2.828125 -9.125 C 3.097656 -9.125 3.332031 -9.023438 3.53125 -8.828125 C 3.726562 -8.628906 3.828125 -8.398438 3.828125 -8.140625 C 3.828125 -7.921875 3.765625 -7.738281 3.640625 -7.59375 C 4.171875 -8.144531 4.769531 -8.539062 5.4375 -8.78125 C 5.738281 -8.78125 6.003906 -8.765625 6.234375 -8.734375 C 6.460938 -8.710938 6.664062 -8.648438 6.84375 -8.546875 C 7.019531 -8.453125 7.164062 -8.363281 7.28125 -8.28125 C 7.394531 -8.207031 7.492188 -8.066406 7.578125 -7.859375 C 7.660156 -7.660156 7.722656 -7.488281 7.765625 -7.34375 C 7.816406 -7.207031 7.851562 -6.976562 7.875 -6.65625 C 7.90625 -6.332031 7.925781 -6.0625 7.9375 -5.84375 C 7.945312 -5.625 7.957031 -5.296875 7.96875 -4.859375 Z M 7.96875 -4.859375 "/></g></g></g></svg>