<svg xmlns="http://www.w3.org/2000/svg" xmlns:xlink="http://www.w3.org/1999/xlink" width="500" zoomAndPan="magnify" viewBox="0 0 375 374.999991" height="500" preserveAspectRatio="xMidYMid meet" version="1.0"><defs><clipPath id="id1"><path d="M 187 129.101562 L 191 129.101562 L 191 136 L 187 136 Z M 187 129.101562 " clip-rule="nonzero"/></clipPath><clipPath id="id2"><path d="M 147.898438 157 L 161 157 L 161 170 L 147.898438 170 Z M 147.898438 157 " clip-rule="nonzero"/></clipPath><clipPath id="id3"><path d="M 217 157 L 230.398438 157 L 230.398438 170 L 217 170 Z M 217 157 " clip-rule="nonzero"/></clipPath><clipPath id="id4"><path d="M 178 162 L 207 162 L 207 201.101562 L 178 201.101562 Z M 178 162 " clip-rule="nonzero"/></clipPath></defs><g clip-path="url(#id1)"><path fill="#ffffff" d="M 189.179688 135.59375 C 189.886719 135.59375 190.464844 135.019531 190.464844 134.3125 L 190.464844 130.464844 C 190.464844 129.757812 189.886719 129.179688 189.179688 129.179688 C 188.472656 129.179688 187.894531 129.757812 187.894531 130.464844 L 187.894531 134.3125 C 187.894531 135.019531 188.472656 135.59375 189.179688 135.59375 Z M 189.179688 135.59375 " fill-opacity="1" fill-rule="nonzero"/></g><path fill="#ffffff" d="M 184.9375 135.851562 C 185.449219 135.339844 185.449219 134.570312 184.9375 134.054688 L 182.363281 131.488281 C 181.847656 130.976562 181.078125 130.976562 180.5625 131.488281 C 180.046875 132.003906 180.046875 132.773438 180.5625 133.285156 L 183.136719 135.851562 C 183.648438 136.363281 184.421875 136.363281 184.9375 135.851562 Z M 184.9375 135.851562 " fill-opacity="1" fill-rule="nonzero"/><path fill="#ffffff" d="M 193.421875 135.851562 C 193.679688 136.109375 194.003906 136.238281 194.324219 136.238281 C 194.644531 136.238281 194.96875 136.109375 195.222656 135.851562 L 197.796875 133.285156 C 198.3125 132.773438 198.3125 132.003906 197.796875 131.488281 C 197.28125 130.976562 196.511719 130.976562 195.996094 131.488281 L 193.421875 134.054688 C 192.910156 134.570312 192.910156 135.339844 193.421875 135.851562 Z M 193.421875 135.851562 " fill-opacity="1" fill-rule="nonzero"/><path fill="#ffffff" d="M 177.027344 146.882812 C 176.898438 147.332031 177.027344 147.847656 177.347656 148.230469 L 182.300781 153.042969 L 181.140625 159.777344 C 181.078125 160.226562 181.269531 160.738281 181.65625 161.058594 C 181.847656 161.253906 182.171875 161.316406 182.429688 161.316406 C 182.621094 161.316406 182.8125 161.253906 183.007812 161.1875 L 189.179688 157.980469 L 195.351562 161.1875 C 195.804688 161.445312 196.316406 161.382812 196.703125 161.058594 C 197.089844 160.804688 197.28125 160.289062 197.21875 159.777344 L 196.058594 153.042969 L 201.011719 148.230469 C 201.332031 147.910156 201.460938 147.398438 201.332031 146.882812 C 201.203125 146.371094 200.753906 146.050781 200.304688 145.988281 L 193.421875 145.023438 L 190.335938 138.867188 C 190.144531 138.417969 189.695312 138.160156 189.179688 138.160156 C 188.664062 138.160156 188.214844 138.417969 188.023438 138.867188 L 184.9375 145.023438 L 178.054688 145.988281 C 177.605469 146.113281 177.15625 146.433594 177.027344 146.882812 Z M 177.027344 146.882812 " fill-opacity="1" fill-rule="nonzero"/><path fill="#ffffff" d="M 171.046875 149.769531 C 170.851562 149.320312 170.402344 149.066406 169.890625 149.066406 C 169.375 149.066406 168.988281 149.320312 168.730469 149.769531 L 166.867188 153.425781 L 162.621094 154.003906 C 162.109375 154.070312 161.722656 154.390625 161.59375 154.902344 C 161.464844 155.351562 161.59375 155.863281 161.914062 156.25 L 164.9375 159.070312 L 164.230469 163.046875 C 164.167969 163.496094 164.359375 164.011719 164.746094 164.332031 C 165.128906 164.652344 165.644531 164.652344 166.09375 164.460938 L 169.890625 162.535156 L 173.683594 164.460938 C 173.875 164.523438 174.070312 164.589844 174.261719 164.589844 C 174.519531 164.589844 174.777344 164.523438 175.03125 164.332031 C 175.417969 164.011719 175.613281 163.5625 175.546875 163.046875 L 174.839844 159.070312 L 177.863281 156.25 C 178.25 155.929688 178.375 155.414062 178.183594 154.902344 C 178.054688 154.453125 177.605469 154.070312 177.15625 154.003906 L 172.910156 153.425781 Z M 171.046875 149.769531 " fill-opacity="1" fill-rule="nonzero"/><g clip-path="url(#id2)"><path fill="#ffffff" d="M 150.535156 169.335938 C 150.917969 169.589844 151.433594 169.65625 151.882812 169.464844 L 154.457031 168.117188 L 157.027344 169.464844 C 157.222656 169.589844 157.414062 169.589844 157.605469 169.589844 C 157.863281 169.589844 158.121094 169.527344 158.378906 169.335938 C 158.765625 169.078125 158.957031 168.566406 158.894531 168.050781 L 158.378906 165.230469 L 160.4375 163.242188 C 160.824219 162.921875 160.949219 162.40625 160.757812 161.894531 C 160.566406 161.382812 160.179688 161.058594 159.730469 160.996094 L 156.835938 160.609375 L 155.550781 158.046875 C 155.355469 157.597656 154.90625 157.339844 154.390625 157.339844 C 153.878906 157.339844 153.492188 157.597656 153.234375 158.046875 L 151.949219 160.609375 L 149.054688 160.996094 C 148.539062 161.058594 148.15625 161.382812 148.027344 161.894531 C 147.898438 162.40625 148.027344 162.855469 148.347656 163.242188 L 150.40625 165.230469 L 149.890625 168.050781 C 149.957031 168.566406 150.148438 169.078125 150.535156 169.335938 Z M 150.535156 169.335938 " fill-opacity="1" fill-rule="nonzero"/></g><path fill="#ffffff" d="M 216.765625 154.839844 C 216.636719 154.390625 216.1875 154.003906 215.738281 153.941406 L 211.492188 153.363281 L 209.628906 149.707031 C 209.433594 149.257812 208.984375 149 208.46875 149 C 207.957031 149 207.570312 149.257812 207.3125 149.707031 L 205.449219 153.363281 L 201.203125 153.941406 C 200.691406 154.003906 200.304688 154.324219 200.175781 154.839844 C 200.046875 155.289062 200.175781 155.800781 200.496094 156.183594 L 203.519531 159.007812 L 202.8125 162.984375 C 202.746094 163.433594 202.941406 163.945312 203.328125 164.265625 C 203.710938 164.589844 204.226562 164.589844 204.675781 164.394531 L 208.46875 162.472656 L 212.265625 164.394531 C 212.457031 164.460938 212.648438 164.523438 212.84375 164.523438 C 213.101562 164.523438 213.355469 164.460938 213.613281 164.265625 C 214 163.945312 214.191406 163.496094 214.128906 162.984375 L 213.421875 159.007812 L 216.445312 156.183594 C 216.765625 155.863281 216.894531 155.351562 216.765625 154.839844 Z M 216.765625 154.839844 " fill-opacity="1" fill-rule="nonzero"/><g clip-path="url(#id3)"><path fill="#ffffff" d="M 230.269531 161.957031 C 230.140625 161.507812 229.691406 161.125 229.238281 161.058594 L 226.347656 160.675781 L 225.058594 158.109375 C 224.867188 157.660156 224.417969 157.402344 223.902344 157.402344 C 223.386719 157.402344 223.003906 157.660156 222.746094 158.109375 L 221.460938 160.675781 L 218.566406 161.058594 C 218.050781 161.125 217.664062 161.445312 217.535156 161.957031 C 217.410156 162.472656 217.535156 162.921875 217.859375 163.304688 L 219.917969 165.292969 L 219.402344 168.117188 C 219.335938 168.566406 219.53125 169.078125 219.917969 169.398438 C 220.300781 169.65625 220.816406 169.71875 221.265625 169.527344 L 223.839844 168.179688 L 226.410156 169.527344 C 226.605469 169.65625 226.796875 169.65625 226.988281 169.65625 C 227.246094 169.65625 227.503906 169.589844 227.761719 169.398438 C 228.148438 169.140625 228.339844 168.628906 228.277344 168.117188 L 227.761719 165.292969 L 229.820312 163.304688 C 230.269531 162.921875 230.398438 162.40625 230.269531 161.957031 Z M 230.269531 161.957031 " fill-opacity="1" fill-rule="nonzero"/></g><g clip-path="url(#id4)"><path fill="#ffffff" d="M 184.679688 196.53125 L 184.679688 199.738281 C 184.679688 200.445312 185.257812 201.019531 185.964844 201.019531 C 186.671875 201.019531 204.546875 201.019531 205.253906 201.019531 C 205.960938 201.019531 206.542969 200.445312 206.542969 199.738281 L 206.542969 196.53125 C 206.542969 195.441406 205.832031 194.480469 204.804688 194.09375 C 205.253906 192.234375 205.960938 188.449219 205.898438 184.28125 C 205.898438 184.152344 205.769531 178.636719 205.769531 178.636719 C 205.707031 176.261719 203.710938 174.335938 201.269531 174.335938 C 201.269531 174.335938 201.203125 174.335938 201.203125 174.335938 C 201.074219 174.335938 201.011719 174.335938 200.882812 174.335938 C 200.046875 173.246094 198.761719 172.542969 197.28125 172.542969 C 197.28125 172.542969 197.089844 172.542969 197.023438 172.542969 C 196.253906 171.515625 195.03125 170.808594 193.617188 170.746094 L 193.617188 167.027344 C 193.617188 167.027344 193.617188 167.027344 193.617188 166.960938 C 193.550781 164.394531 191.75 162.535156 189.4375 162.535156 C 189.4375 162.535156 189.371094 162.535156 189.371094 162.535156 C 188.28125 162.535156 187.25 162.984375 186.542969 163.753906 C 185.773438 164.589844 185.320312 165.742188 185.320312 167.027344 L 185.320312 176.96875 C 184.679688 176.710938 184.035156 176.582031 183.390625 176.582031 C 181.59375 176.582031 179.792969 177.609375 179.148438 179.339844 C 178.503906 181.136719 179.085938 183.316406 181.011719 186.011719 L 186.09375 194.285156 C 185.257812 194.671875 184.679688 195.503906 184.679688 196.53125 Z M 183.199219 184.535156 C 182.363281 183.191406 180.113281 180.429688 182.363281 179.339844 C 183.585938 178.765625 184.808594 179.40625 185.707031 180.238281 C 186.09375 180.558594 186.414062 180.945312 186.734375 181.328125 C 187.121094 181.777344 187.894531 181.523438 187.894531 180.945312 L 187.894531 167.027344 C 187.894531 166 188.40625 165.101562 189.4375 165.101562 C 190.464844 165.101562 191.042969 166.0625 191.042969 167.027344 L 191.042969 174.914062 C 191.042969 174.914062 191.042969 175.109375 191.042969 175.109375 C 191.042969 175.042969 191.042969 175.042969 191.109375 174.980469 C 191.429688 174.144531 192.460938 173.441406 193.359375 173.441406 C 194.386719 173.441406 195.222656 174.210938 195.289062 175.234375 L 195.289062 176.582031 C 195.289062 176.582031 195.289062 176.648438 195.289062 176.648438 C 195.289062 176.648438 195.289062 176.648438 195.351562 176.582031 C 195.546875 175.8125 196.316406 175.234375 197.152344 175.234375 C 198.183594 175.234375 199.019531 176.003906 199.082031 177.03125 L 199.210938 178.507812 C 199.210938 178.507812 199.210938 178.570312 199.273438 178.570312 C 199.273438 178.570312 199.273438 178.570312 199.273438 178.507812 C 199.402344 177.671875 200.175781 177.03125 201.140625 177.03125 C 202.167969 177.03125 203.003906 177.800781 203.070312 178.828125 L 203.328125 185.242188 L 203.328125 184.34375 C 203.390625 188.640625 202.554688 192.492188 202.234375 193.964844 L 188.921875 193.964844 C 188.921875 193.964844 183.199219 184.601562 183.199219 184.535156 Z M 183.199219 184.535156 " fill-opacity="1" fill-rule="nonzero"/></g></svg>