<svg xmlns="http://www.w3.org/2000/svg" xmlns:xlink="http://www.w3.org/1999/xlink" width="500" zoomAndPan="magnify" viewBox="0 0 375 374.999991" height="500" preserveAspectRatio="xMidYMid meet" version="1.0"><defs><clipPath id="id1"><path d="M 172.488281 145.796875 L 224.238281 145.796875 L 224.238281 197.546875 L 172.488281 197.546875 Z M 172.488281 145.796875 " clip-rule="nonzero"/></clipPath><clipPath id="id2"><path d="M 143.511719 203.328125 L 155.632812 203.328125 L 155.632812 213.042969 L 143.511719 213.042969 Z M 143.511719 203.328125 " clip-rule="nonzero"/></clipPath><clipPath id="id3"><path d="M 142.535156 180.554688 L 209.203125 180.554688 L 209.203125 209.363281 L 142.535156 209.363281 Z M 142.535156 180.554688 " clip-rule="nonzero"/></clipPath><clipPath id="id4"><path d="M 143.902344 203.328125 L 155.632812 203.328125 L 155.632812 213.042969 L 143.902344 213.042969 Z M 143.902344 203.328125 " clip-rule="nonzero"/></clipPath><clipPath id="id5"><path d="M 151 159.042969 L 174 159.042969 L 174 191 L 151 191 Z M 151 159.042969 " clip-rule="nonzero"/></clipPath><clipPath id="id6"><path d="M 143 159.042969 L 175 159.042969 L 175 194 L 143 194 Z M 143 159.042969 " clip-rule="nonzero"/></clipPath></defs><g clip-path="url(#id1)"><path fill="#ffffff" d="M 218.601562 145.808594 L 178.121094 145.808594 C 177.75 145.804688 177.382812 145.839844 177.019531 145.90625 C 176.65625 145.976562 176.304688 146.082031 175.960938 146.222656 C 175.621094 146.363281 175.292969 146.535156 174.984375 146.738281 C 174.675781 146.945312 174.390625 147.175781 174.128906 147.4375 C 173.867188 147.699219 173.636719 147.984375 173.429688 148.292969 C 173.226562 148.601562 173.054688 148.929688 172.914062 149.269531 C 172.773438 149.613281 172.667969 149.964844 172.597656 150.328125 C 172.527344 150.695312 172.496094 151.058594 172.5 151.429688 L 172.5 179.542969 C 172.496094 179.914062 172.527344 180.277344 172.597656 180.644531 C 172.667969 181.007812 172.773438 181.359375 172.914062 181.703125 C 173.054688 182.042969 173.226562 182.371094 173.429688 182.679688 C 173.636719 182.988281 173.867188 183.273438 174.128906 183.535156 C 174.390625 183.796875 174.675781 184.027344 174.984375 184.234375 C 175.292969 184.4375 175.621094 184.609375 175.960938 184.75 C 176.304688 184.890625 176.65625 184.996094 177.019531 185.066406 C 177.382812 185.132812 177.75 185.167969 178.121094 185.164062 L 180.371094 185.164062 L 180.371094 195.285156 C 180.371094 196.296875 180.933594 197.082031 181.832031 197.421875 C 182.085938 197.503906 182.351562 197.539062 182.617188 197.527344 C 183.359375 197.511719 183.960938 197.214844 184.417969 196.628906 L 193.640625 185.164062 L 218.601562 185.164062 C 218.972656 185.167969 219.339844 185.132812 219.703125 185.066406 C 220.066406 184.996094 220.417969 184.890625 220.761719 184.75 C 221.105469 184.609375 221.429688 184.4375 221.738281 184.234375 C 222.046875 184.027344 222.332031 183.796875 222.59375 183.535156 C 222.855469 183.273438 223.089844 182.988281 223.292969 182.679688 C 223.5 182.371094 223.671875 182.042969 223.8125 181.703125 C 223.949219 181.359375 224.054688 181.007812 224.125 180.644531 C 224.195312 180.277344 224.226562 179.914062 224.222656 179.542969 L 224.222656 151.429688 C 224.226562 151.058594 224.195312 150.695312 224.125 150.328125 C 224.054688 149.964844 223.949219 149.613281 223.8125 149.269531 C 223.671875 148.929688 223.5 148.601562 223.292969 148.292969 C 223.089844 147.984375 222.855469 147.699219 222.59375 147.4375 C 222.332031 147.175781 222.046875 146.945312 221.738281 146.738281 C 221.429688 146.535156 221.105469 146.363281 220.761719 146.222656 C 220.417969 146.082031 220.066406 145.976562 219.703125 145.90625 C 219.339844 145.839844 218.972656 145.804688 218.601562 145.808594 Z M 189.140625 164.472656 L 187.460938 166.273438 C 187.234375 166.496094 187.121094 166.835938 187.234375 167.058594 L 187.675781 169.535156 C 187.738281 169.914062 187.617188 170.21875 187.308594 170.453125 C 187 170.683594 186.671875 170.714844 186.324219 170.546875 L 184.414062 169.421875 C 184.078125 169.3125 183.738281 169.3125 183.515625 169.421875 L 181.605469 170.546875 C 180.933594 170.882812 180.035156 170.320312 180.257812 169.535156 L 180.707031 167.058594 C 180.707031 166.722656 180.707031 166.496094 180.484375 166.273438 L 178.796875 164.472656 C 178.234375 163.910156 178.570312 163.011719 179.359375 162.898438 L 181.605469 162.5625 C 181.945312 162.5625 182.167969 162.339844 182.28125 162 L 183.292969 159.863281 C 183.632812 159.191406 184.644531 159.191406 184.980469 159.863281 L 185.992188 162 C 186.101562 162.339844 186.445312 162.449219 186.667969 162.5625 L 188.917969 162.902344 C 189.367188 162.898438 189.589844 163.910156 189.140625 164.472656 Z M 203.757812 164.472656 L 202.074219 166.273438 C 201.847656 166.496094 201.738281 166.835938 201.847656 167.058594 L 202.296875 169.535156 C 202.363281 169.914062 202.242188 170.21875 201.933594 170.453125 C 201.625 170.683594 201.296875 170.714844 200.949219 170.546875 L 199.039062 169.421875 C 198.699219 169.3125 198.363281 169.3125 198.136719 169.421875 L 196.226562 170.546875 C 195.550781 170.882812 194.652344 170.324219 194.878906 169.535156 L 195.328125 167.0625 C 195.328125 166.722656 195.328125 166.5 195.101562 166.273438 L 193.417969 164.476562 C 192.855469 163.914062 193.191406 163.011719 193.980469 162.902344 L 196.226562 162.5625 C 196.566406 162.5625 196.789062 162.339844 196.902344 162 L 197.914062 159.867188 C 198.253906 159.191406 199.265625 159.191406 199.601562 159.867188 L 200.613281 162 C 200.722656 162.339844 201.0625 162.453125 201.289062 162.5625 L 203.535156 162.902344 C 203.984375 162.898438 204.210938 163.910156 203.757812 164.472656 Z M 218.378906 164.472656 L 216.691406 166.273438 C 216.464844 166.496094 216.351562 166.835938 216.464844 167.058594 L 216.914062 169.535156 C 216.980469 169.914062 216.859375 170.21875 216.550781 170.453125 C 216.242188 170.683594 215.914062 170.714844 215.566406 170.546875 L 213.65625 169.421875 C 213.316406 169.3125 212.980469 169.3125 212.753906 169.421875 L 210.84375 170.546875 C 210.167969 170.882812 209.269531 170.324219 209.496094 169.535156 L 209.945312 167.0625 C 209.945312 166.722656 209.945312 166.5 209.71875 166.273438 L 208.035156 164.476562 C 207.472656 163.914062 207.808594 163.011719 208.597656 162.902344 L 210.84375 162.5625 C 211.183594 162.5625 211.40625 162.339844 211.519531 162 L 212.53125 159.867188 C 212.871094 159.191406 213.882812 159.191406 214.21875 159.867188 L 215.230469 162 C 215.339844 162.339844 215.683594 162.453125 215.90625 162.5625 L 218.15625 162.902344 C 218.601562 162.898438 218.828125 163.910156 218.378906 164.472656 Z M 218.378906 164.472656 " fill-opacity="1" fill-rule="nonzero"/></g><path fill="#d9d9d9" d="M 208.539062 182.589844 C 208.539062 182.582031 208.539062 182.574219 208.539062 182.566406 L 208.542969 182.609375 C 208.542969 182.601562 208.542969 182.59375 208.539062 182.589844 " fill-opacity="1" fill-rule="nonzero"/><g clip-path="url(#id2)"><path fill="#ffffff" d="M 155.503906 206.542969 L 155.304688 203.449219 L 150.210938 203.769531 C 146.976562 203.972656 144.371094 206.269531 143.644531 209.25 C 144.617188 211.609375 147.015625 213.199219 149.710938 213.03125 L 149.761719 213.027344 C 153.144531 212.816406 155.714844 209.910156 155.503906 206.542969 " fill-opacity="1" fill-rule="nonzero"/></g><path fill="#ffffff" d="M 202.027344 176.871094 L 201.976562 176.875 C 198.59375 177.085938 196.023438 179.992188 196.234375 183.359375 L 196.433594 186.457031 L 201.527344 186.136719 C 204.765625 185.933594 207.371094 183.636719 208.09375 180.652344 C 207.125 178.292969 204.722656 176.703125 202.027344 176.871094 " fill-opacity="1" fill-rule="nonzero"/><g clip-path="url(#id3)"><path fill="#d9d9d9" d="M 209.191406 192.863281 L 208.542969 182.609375 L 208.539062 182.566406 C 208.492188 181.890625 208.339844 181.246094 208.09375 180.652344 C 207.371094 183.636719 204.765625 185.933594 201.527344 186.136719 L 196.433594 186.457031 L 175.453125 187.773438 L 149.304688 189.410156 C 145.324219 189.660156 142.296875 193.078125 142.550781 197.042969 L 143.199219 207.3125 C 143.242188 208 143.398438 208.648438 143.644531 209.25 C 144.371094 206.269531 146.976562 203.972656 150.210938 203.769531 L 155.304688 203.449219 L 176.285156 202.132812 L 202.433594 200.492188 C 206.417969 200.242188 209.441406 196.828125 209.191406 192.863281 " fill-opacity="1" fill-rule="nonzero"/></g><path fill="#ffffff" d="M 205.738281 183.730469 C 205.253906 183.964844 204.394531 184.273438 203.445312 184.261719 C 201.246094 184.246094 199.753906 182.367188 200.683594 180.457031 C 200.691406 180.4375 200.703125 180.414062 200.714844 180.394531 C 201.332031 179.140625 202.597656 178.246094 204.097656 178.152344 L 204.128906 178.152344 C 205.554688 178.0625 206.855469 178.714844 207.648438 179.777344 C 206.496094 177.914062 204.375 176.726562 202.027344 176.875 L 201.976562 176.875 C 198.59375 177.089844 196.023438 179.992188 196.234375 183.363281 L 196.433594 186.453125 L 201.527344 186.136719 C 204.382812 185.957031 206.742188 184.148438 207.757812 181.679688 C 207.316406 182.550781 206.625 183.304688 205.738281 183.730469 " fill-opacity="1" fill-rule="nonzero"/><g clip-path="url(#id4)"><path fill="#ffffff" d="M 155.503906 206.542969 L 155.304688 203.449219 L 150.210938 203.769531 C 147.359375 203.949219 144.996094 205.753906 143.980469 208.222656 C 144.425781 207.355469 145.113281 206.601562 146.003906 206.171875 C 146.484375 205.941406 147.34375 205.632812 148.292969 205.640625 C 150.492188 205.65625 151.984375 207.535156 151.054688 209.445312 C 151.046875 209.46875 151.035156 209.488281 151.023438 209.511719 C 150.40625 210.765625 149.140625 211.65625 147.640625 211.75 L 147.609375 211.753906 C 146.183594 211.84375 144.882812 211.1875 144.09375 210.125 C 145.242188 211.992188 147.363281 213.179688 149.710938 213.03125 L 149.761719 213.027344 C 153.144531 212.816406 155.714844 209.910156 155.503906 206.542969 " fill-opacity="1" fill-rule="nonzero"/></g><path fill="#ffffff" d="M 151.375 179.324219 C 152.042969 182.0625 152.921875 189.796875 153.023438 190.46875 C 153.121094 191.140625 152.101562 192.09375 151.507812 192.226562 C 150.910156 192.355469 148.425781 193.113281 147.117188 192.605469 C 145.808594 192.101562 145.710938 188.125 145.710938 188.125 C 145.710938 188.125 144.808594 181.425781 144.621094 179.261719 C 144.433594 177.101562 146.042969 176.972656 146.855469 176.835938 L 149.601562 176.5625 C 149.601562 176.5625 150.828125 176.625 151.011719 177.714844 C 151.195312 178.804688 151.277344 178.921875 151.375 179.324219 " fill-opacity="1" fill-rule="nonzero"/><g clip-path="url(#id5)"><path fill="#ffffff" d="M 159.390625 160.96875 L 159.347656 164.828125 C 159.347656 164.828125 158.488281 168.136719 157.726562 168.746094 C 156.964844 169.351562 155.589844 171.53125 155.023438 174.25 C 154.453125 176.972656 151.175781 177.996094 151.414062 179.597656 C 151.652344 181.195312 152.921875 189.796875 152.921875 189.796875 C 152.921875 189.796875 156.332031 190.640625 158.367188 190.34375 C 160.40625 190.042969 166.671875 190.367188 169.160156 188.957031 C 171.648438 187.550781 171.925781 188.238281 172.863281 186.847656 C 173.800781 185.453125 172.757812 185.140625 173.039062 184.25 C 173.316406 183.363281 173.378906 182.800781 173.816406 181.976562 C 174.25 181.15625 173.828125 180.660156 173.339844 180.148438 C 172.855469 179.636719 173.007812 179.117188 173.320312 178.632812 C 173.632812 178.148438 174.207031 178.066406 173.769531 177.109375 C 173.335938 176.152344 172.132812 175.976562 172.730469 174.632812 C 173.324219 173.289062 173.355469 172.324219 172.875 171.632812 C 172.390625 170.945312 171.042969 170.355469 169.363281 170.292969 C 167.8125 170.238281 166.542969 170.382812 165.847656 170.519531 C 165.171875 170.648438 164.292969 171.3125 163.433594 171.046875 C 163.121094 170.949219 163.128906 170.171875 163.183594 169.566406 C 163.238281 168.988281 164.136719 166.492188 164.1875 166.046875 C 164.242188 165.601562 164.472656 162.792969 163.871094 162.09375 C 163.265625 161.390625 162.289062 160.132812 161.011719 159.621094 C 159.734375 159.109375 159.390625 160.96875 159.390625 160.96875 " fill-opacity="1" fill-rule="nonzero"/></g><g clip-path="url(#id6)"><path fill="#d9d9d9" d="M 172.804688 182.5 C 172.503906 182.839844 171.703125 183.738281 172.261719 184.71875 C 172.917969 185.867188 172.28125 186.398438 172.070312 186.574219 C 171.90625 186.710938 171.609375 186.886719 171.316406 187.050781 C 171.222656 187.105469 171.125 187.160156 171.03125 187.21875 C 170.007812 187.816406 168.914062 188.265625 167.769531 188.554688 C 165.238281 189.195312 160.078125 190.117188 153.519531 189.257812 L 151.964844 178.84375 L 152.089844 178.824219 L 152.128906 178.816406 C 153.53125 178.4375 153.996094 177.699219 154.585938 176.761719 C 154.660156 176.636719 154.742188 176.507812 154.832031 176.371094 C 155.179688 175.835938 155.46875 175.253906 155.695312 174.640625 C 155.941406 173.964844 156.136719 173.332031 156.320312 172.714844 C 156.808594 171.105469 157.195312 169.835938 158.210938 169 C 160.078125 167.460938 160.03125 165.03125 159.972656 161.953125 L 159.96875 161.886719 C 159.957031 161.164062 160.148438 160.742188 160.542969 160.628906 C 161.1875 160.445312 162.203125 160.960938 162.628906 161.683594 C 163.457031 163.085938 163.832031 164.011719 163.574219 165.179688 C 163.515625 165.445312 163.414062 165.816406 163.300781 166.25 C 162.558594 169.035156 162.289062 170.492188 162.761719 171.246094 C 162.921875 171.5 163.167969 171.671875 163.457031 171.726562 C 164.078125 171.847656 164.933594 171.679688 166.019531 171.46875 C 166.914062 171.289062 167.925781 171.089844 168.746094 171.09375 C 170.707031 171.101562 171.71875 171.445312 172.242188 172.277344 C 172.867188 173.269531 172.125 174.285156 171.972656 174.480469 C 171.730469 174.78125 171.644531 175.203125 171.738281 175.636719 C 171.832031 176.066406 172.078125 176.410156 172.410156 176.582031 C 172.757812 176.761719 173.035156 177.179688 173.085938 177.597656 C 173.136719 177.980469 173 178.320312 172.679688 178.597656 C 172.296875 178.9375 172.171875 179.414062 172.34375 179.910156 C 172.445312 180.199219 172.621094 180.449219 172.828125 180.722656 C 172.949219 180.878906 173.507812 181.710938 172.804688 182.5 Z M 151 191.621094 L 148.402344 192 C 147.660156 192.109375 146.96875 191.597656 146.859375 190.863281 L 145.121094 179.09375 C 145.011719 178.355469 145.527344 177.667969 146.265625 177.558594 L 148.867188 177.179688 C 149.605469 177.070312 150.296875 177.582031 150.40625 178.320312 L 152.144531 190.085938 C 152.253906 190.824219 151.742188 191.511719 151 191.621094 Z M 173.898438 183.464844 C 174.957031 182.277344 174.710938 180.792969 173.996094 179.847656 C 173.949219 179.78125 173.855469 179.65625 173.789062 179.554688 C 174.375 178.972656 174.636719 178.21875 174.539062 177.417969 C 174.429688 176.554688 173.898438 175.75 173.167969 175.335938 C 173.167969 175.332031 173.167969 175.324219 173.164062 175.320312 C 173.894531 174.367188 174.347656 172.882812 173.476562 171.503906 C 172.453125 169.875 170.515625 169.648438 168.753906 169.640625 C 167.785156 169.636719 166.695312 169.851562 165.734375 170.039062 C 165.105469 170.164062 164.410156 170.300781 163.988281 170.3125 C 163.976562 170.113281 163.996094 169.730469 164.132812 169.015625 C 164.285156 168.234375 164.523438 167.339844 164.710938 166.621094 C 164.832031 166.175781 164.933594 165.785156 165 165.496094 C 165.359375 163.875 164.863281 162.597656 163.886719 160.945312 C 163.53125 160.339844 162.953125 159.820312 162.265625 159.492188 C 161.539062 159.140625 160.785156 159.050781 160.144531 159.230469 C 159.640625 159.371094 158.46875 159.917969 158.507812 161.917969 L 158.511719 161.980469 C 158.566406 164.769531 158.605469 166.789062 157.277344 167.878906 C 155.925781 168.992188 155.4375 170.597656 154.921875 172.296875 C 154.742188 172.890625 154.554688 173.503906 154.324219 174.140625 C 154.136719 174.652344 153.894531 175.136719 153.605469 175.582031 C 153.511719 175.726562 153.425781 175.863281 153.34375 175.992188 C 152.824219 176.820312 152.605469 177.171875 151.789062 177.398438 L 151.65625 177.417969 C 151.167969 176.273438 149.945312 175.550781 148.652344 175.738281 L 146.054688 176.121094 C 144.515625 176.34375 143.449219 177.773438 143.675781 179.304688 L 145.414062 191.074219 C 145.640625 192.601562 147.074219 193.667969 148.613281 193.441406 L 151.214844 193.058594 C 152.457031 192.878906 153.390625 191.910156 153.585938 190.734375 C 158.046875 191.289062 161.878906 191.054688 164.707031 190.640625 C 166.109375 190.433594 167.265625 190.183594 168.128906 189.96875 C 169.40625 189.644531 170.632812 189.140625 171.773438 188.46875 C 171.863281 188.417969 171.957031 188.363281 172.046875 188.3125 C 172.40625 188.105469 172.75 187.910156 173.011719 187.6875 C 174.125 186.757812 174.320312 185.378906 173.535156 184 C 173.542969 183.960938 173.59375 183.808594 173.898438 183.464844 " fill-opacity="1" fill-rule="nonzero"/></g><path fill="#ffffff" d="M 151.019531 196.429688 L 152.28125 196.351562 C 152.597656 196.332031 152.828125 196.246094 152.980469 196.105469 C 153.121094 195.964844 153.1875 195.769531 153.171875 195.523438 C 153.15625 195.261719 153.066406 195.078125 152.914062 194.96875 C 152.75 194.855469 152.507812 194.8125 152.179688 194.832031 L 150.921875 194.910156 Z M 152.242188 194.21875 C 152.710938 194.1875 153.097656 194.269531 153.390625 194.46875 C 153.691406 194.683594 153.855469 195.007812 153.886719 195.453125 C 153.902344 195.699219 153.847656 195.917969 153.730469 196.117188 C 153.59375 196.335938 153.398438 196.484375 153.144531 196.566406 L 153.148438 196.582031 C 153.570312 196.644531 153.820312 196.90625 153.902344 197.359375 L 154.027344 198.097656 C 154.070312 198.382812 154.175781 198.605469 154.34375 198.765625 L 153.570312 198.8125 C 153.449219 198.675781 153.371094 198.472656 153.328125 198.214844 L 153.234375 197.636719 C 153.191406 197.375 153.09375 197.199219 152.949219 197.089844 C 152.796875 196.980469 152.589844 196.941406 152.320312 196.960938 L 151.054688 197.039062 L 151.179688 198.964844 L 150.464844 199.007812 L 150.167969 194.347656 L 152.242188 194.21875 " fill-opacity="1" fill-rule="nonzero"/><path fill="#ffffff" d="M 158.070312 193.851562 L 158.109375 194.460938 L 155.457031 194.625 L 155.542969 195.984375 L 158.035156 195.828125 L 158.074219 196.433594 L 155.582031 196.589844 L 155.675781 198.074219 L 158.4375 197.898438 L 158.476562 198.507812 L 155 198.726562 L 154.707031 194.0625 L 158.070312 193.851562 " fill-opacity="1" fill-rule="nonzero"/><path fill="#ffffff" d="M 162.3125 193.921875 C 162.671875 194.171875 162.90625 194.539062 163.007812 195.003906 L 162.3125 195.046875 C 162.214844 194.738281 162.046875 194.515625 161.816406 194.378906 C 161.582031 194.242188 161.300781 194.1875 160.960938 194.207031 C 160.457031 194.242188 160.085938 194.433594 159.855469 194.796875 C 159.628906 195.125 159.539062 195.5625 159.574219 196.105469 C 159.609375 196.667969 159.753906 197.089844 160.011719 197.382812 C 160.28125 197.691406 160.675781 197.832031 161.203125 197.796875 C 161.542969 197.777344 161.828125 197.675781 162.039062 197.492188 C 162.261719 197.292969 162.410156 197.007812 162.476562 196.636719 L 163.171875 196.59375 C 163.101562 197.140625 162.886719 197.582031 162.519531 197.910156 C 162.175781 198.222656 161.753906 198.394531 161.25 198.425781 C 160.480469 198.472656 159.890625 198.261719 159.472656 197.800781 C 159.105469 197.40625 158.90625 196.855469 158.859375 196.148438 C 158.816406 195.457031 158.949219 194.886719 159.277344 194.425781 C 159.640625 193.90625 160.1875 193.628906 160.933594 193.582031 C 161.480469 193.546875 161.941406 193.65625 162.3125 193.921875 " fill-opacity="1" fill-rule="nonzero"/><path fill="#ffffff" d="M 164.679688 194.480469 C 164.4375 194.816406 164.332031 195.253906 164.367188 195.804688 C 164.402344 196.347656 164.558594 196.769531 164.84375 197.070312 C 165.136719 197.382812 165.535156 197.527344 166.035156 197.496094 C 166.53125 197.464844 166.910156 197.277344 167.15625 196.941406 C 167.398438 196.609375 167.507812 196.164062 167.476562 195.609375 C 167.441406 195.046875 167.273438 194.617188 166.992188 194.316406 C 166.703125 194.003906 166.304688 193.875 165.808594 193.90625 C 165.308594 193.9375 164.933594 194.125 164.679688 194.480469 Z M 167.496094 193.863281 C 167.917969 194.277344 168.152344 194.847656 168.195312 195.5625 C 168.242188 196.277344 168.082031 196.863281 167.714844 197.332031 C 167.332031 197.8125 166.78125 198.078125 166.074219 198.121094 C 165.359375 198.167969 164.78125 197.96875 164.34375 197.535156 C 163.921875 197.117188 163.695312 196.554688 163.652344 195.847656 C 163.605469 195.136719 163.761719 194.550781 164.125 194.082031 C 164.503906 193.585938 165.054688 193.324219 165.769531 193.277344 C 166.476562 193.234375 167.054688 193.425781 167.496094 193.863281 " fill-opacity="1" fill-rule="nonzero"/><path fill="#ffffff" d="M 169.617188 193.128906 L 171.484375 196.761719 L 171.503906 196.757812 L 172.894531 192.921875 L 173.738281 192.871094 L 174.035156 197.53125 L 173.320312 197.574219 L 173.109375 194.246094 L 173.082031 194.25 L 171.859375 197.667969 L 171.242188 197.707031 L 169.59375 194.464844 L 169.570312 194.46875 L 169.777344 197.796875 L 169.066406 197.84375 L 168.769531 193.179688 L 169.617188 193.128906 " fill-opacity="1" fill-rule="nonzero"/><path fill="#ffffff" d="M 175.503906 192.757812 L 177.371094 196.390625 L 177.390625 196.390625 L 178.78125 192.554688 L 179.628906 192.5 L 179.921875 197.160156 L 179.207031 197.207031 L 178.996094 193.878906 L 178.96875 193.878906 L 177.746094 197.296875 L 177.128906 197.335938 L 175.480469 194.097656 L 175.457031 194.097656 L 175.667969 197.429688 L 174.953125 197.472656 L 174.65625 192.8125 L 175.503906 192.757812 " fill-opacity="1" fill-rule="nonzero"/><path fill="#ffffff" d="M 183.910156 192.230469 L 183.945312 192.839844 L 181.296875 193.003906 L 181.382812 194.363281 L 183.875 194.207031 L 183.914062 194.8125 L 181.421875 194.96875 L 181.515625 196.453125 L 184.277344 196.277344 L 184.316406 196.886719 L 180.839844 197.105469 L 180.546875 192.441406 L 183.910156 192.230469 " fill-opacity="1" fill-rule="nonzero"/><path fill="#ffffff" d="M 185.46875 192.132812 L 188.082031 195.449219 L 188.109375 195.449219 L 187.886719 191.980469 L 188.601562 191.9375 L 188.898438 196.597656 L 188.203125 196.644531 L 185.5625 193.289062 L 185.535156 193.289062 L 185.757812 196.796875 L 185.042969 196.839844 L 184.746094 192.179688 L 185.46875 192.132812 " fill-opacity="1" fill-rule="nonzero"/><path fill="#ffffff" d="M 190.5 195.886719 L 191.34375 195.835938 C 191.933594 195.796875 192.363281 195.628906 192.621094 195.328125 C 192.875 195.03125 192.984375 194.59375 192.945312 194.003906 C 192.910156 193.402344 192.742188 192.980469 192.464844 192.722656 C 192.171875 192.460938 191.730469 192.351562 191.140625 192.386719 L 190.28125 192.441406 Z M 191.234375 191.773438 C 191.984375 191.726562 192.570312 191.898438 192.988281 192.296875 C 193.382812 192.667969 193.601562 193.222656 193.648438 193.960938 C 193.695312 194.691406 193.539062 195.273438 193.191406 195.699219 C 192.824219 196.144531 192.269531 196.386719 191.511719 196.433594 L 189.820312 196.539062 L 189.527344 191.878906 L 191.234375 191.773438 " fill-opacity="1" fill-rule="nonzero"/><path fill="#ffffff" d="M 197.59375 191.375 L 197.628906 191.980469 L 194.980469 192.148438 L 195.066406 193.503906 L 197.558594 193.347656 L 197.597656 193.957031 L 195.105469 194.113281 L 195.199219 195.59375 L 197.960938 195.421875 L 198 196.027344 L 194.523438 196.246094 L 194.230469 191.585938 L 197.59375 191.375 " fill-opacity="1" fill-rule="nonzero"/><path fill="#ffffff" d="M 199.402344 195.332031 L 200.246094 195.277344 C 200.839844 195.242188 201.269531 195.070312 201.527344 194.769531 C 201.777344 194.472656 201.886719 194.035156 201.851562 193.445312 C 201.8125 192.847656 201.648438 192.421875 201.367188 192.164062 C 201.074219 191.902344 200.632812 191.792969 200.042969 191.828125 L 199.183594 191.882812 Z M 200.136719 191.214844 C 200.890625 191.167969 201.472656 191.339844 201.894531 191.738281 C 202.285156 192.109375 202.503906 192.664062 202.550781 193.402344 C 202.597656 194.132812 202.445312 194.714844 202.097656 195.140625 C 201.730469 195.585938 201.171875 195.828125 200.417969 195.875 L 198.726562 195.984375 L 198.429688 191.320312 L 200.136719 191.214844 " fill-opacity="1" fill-rule="nonzero"/></svg>