<svg xmlns="http://www.w3.org/2000/svg" xmlns:xlink="http://www.w3.org/1999/xlink" width="500" zoomAndPan="magnify" viewBox="0 0 375 374.999991" height="500" preserveAspectRatio="xMidYMid meet" version="1.0"><defs><clipPath id="id1"><path d="M 175 150.152344 L 185 150.152344 L 185 160 L 175 160 Z M 175 150.152344 " clip-rule="nonzero"/></clipPath><clipPath id="id2"><path d="M 167.265625 161 L 219.765625 161 L 219.765625 210.902344 L 167.265625 210.902344 Z M 167.265625 161 " clip-rule="nonzero"/></clipPath></defs><g clip-path="url(#id1)"><path fill="#ffffff" d="M 180.546875 150.460938 L 181.890625 152.894531 C 181.9375 152.976562 182.003906 153.039062 182.082031 153.082031 L 184.542969 154.414062 C 184.871094 154.59375 184.871094 155.0625 184.542969 155.242188 L 182.082031 156.574219 C 182.003906 156.617188 181.9375 156.683594 181.890625 156.761719 L 180.546875 159.195312 C 180.363281 159.523438 179.890625 159.523438 179.707031 159.195312 L 178.363281 156.761719 C 178.320312 156.683594 178.257812 156.617188 178.175781 156.574219 L 175.714844 155.242188 C 175.382812 155.0625 175.382812 154.59375 175.714844 154.414062 L 178.175781 153.082031 C 178.257812 153.039062 178.320312 152.976562 178.363281 152.894531 L 179.707031 150.460938 C 179.890625 150.132812 180.363281 150.132812 180.546875 150.460938 " fill-opacity="1" fill-rule="nonzero"/></g><path fill="#ffffff" d="M 173.125 162.371094 L 174.066406 164.078125 C 174.097656 164.132812 174.144531 164.179688 174.199219 164.210938 L 175.925781 165.140625 C 176.15625 165.269531 176.15625 165.597656 175.925781 165.722656 L 174.199219 166.65625 C 174.144531 166.683594 174.097656 166.730469 174.066406 166.789062 L 173.125 168.492188 C 172.996094 168.722656 172.664062 168.722656 172.539062 168.492188 L 171.59375 166.789062 C 171.5625 166.730469 171.519531 166.683594 171.460938 166.65625 L 169.738281 165.722656 C 169.503906 165.597656 169.503906 165.269531 169.738281 165.140625 L 171.460938 164.210938 C 171.519531 164.179688 171.5625 164.132812 171.59375 164.078125 L 172.539062 162.371094 C 172.664062 162.140625 172.996094 162.140625 173.125 162.371094 " fill-opacity="1" fill-rule="nonzero"/><g clip-path="url(#id2)"><path fill="#ffffff" d="M 205.621094 205.4375 C 202.539062 205.113281 197.496094 205.992188 194.90625 206.8125 C 187.851562 209.042969 182.875 209.902344 179.710938 209.4375 C 177.90625 209.175781 176.253906 206.953125 176.265625 206.386719 C 176.285156 206.058594 176.066406 205.765625 175.742188 205.6875 C 174.371094 205.367188 173.441406 204.773438 172.980469 203.929688 C 172.304688 202.6875 172.828125 201.242188 172.832031 201.230469 C 172.902344 201.046875 172.886719 200.847656 172.796875 200.675781 C 172.703125 200.503906 172.539062 200.378906 172.347656 200.339844 C 170.878906 200.011719 169.902344 199.019531 169.738281 197.683594 C 169.589844 196.480469 170.15625 194.832031 172.207031 193.816406 C 172.652344 193.59375 172.914062 193.132812 172.867188 192.636719 C 172.820312 192.164062 172.5 191.777344 172.058594 191.648438 C 171.785156 191.566406 171.542969 191.507812 171.308594 191.449219 C 170.734375 191.3125 170.316406 191.210938 169.6875 190.800781 C 169.1875 190.472656 168.851562 189.535156 168.886719 188.566406 C 168.910156 188.050781 169.070312 186.78125 170.164062 186.179688 C 171.828125 185.257812 174.855469 184.605469 177.785156 183.972656 C 182.148438 183.027344 184.855469 182.382812 185.542969 181.082031 C 185.746094 180.695312 185.761719 180.269531 185.585938 179.855469 C 185.160156 178.839844 184.671875 177.773438 184.195312 176.746094 C 182.628906 173.34375 181.011719 169.828125 181.085938 166.933594 C 181.144531 164.648438 182.378906 163.335938 183.566406 163.214844 C 184.34375 163.140625 184.917969 163.578125 185.105469 164.390625 C 186.796875 171.660156 192.136719 177.554688 196.316406 181.21875 C 198.464844 183.101562 202.121094 185.839844 205.484375 188.09375 C 206.351562 193.375 206.097656 201.203125 205.621094 205.4375 Z M 218.464844 186.15625 C 218.148438 184.921875 216.988281 184.085938 215.6875 184.15625 L 207.890625 184.664062 C 207.132812 184.710938 206.457031 185.0625 205.992188 185.648438 C 205.785156 185.902344 205.644531 186.199219 205.546875 186.503906 C 202.429688 184.382812 199.179688 181.929688 197.21875 180.210938 C 193.1875 176.675781 188.042969 171.011719 186.429688 164.089844 C 186.089844 162.621094 184.894531 161.734375 183.429688 161.878906 C 181.707031 162.050781 179.808594 163.695312 179.726562 166.898438 C 179.644531 170.105469 181.328125 173.761719 182.960938 177.300781 C 183.453125 178.367188 183.917969 179.378906 184.332031 180.375 C 184.355469 180.425781 184.347656 180.433594 184.335938 180.460938 C 183.910156 181.269531 180.199219 182.070312 177.492188 182.65625 C 174.472656 183.3125 171.34375 183.988281 169.503906 185.003906 C 168.328125 185.652344 167.589844 186.964844 167.527344 188.519531 C 167.472656 189.992188 168.023438 191.328125 168.9375 191.921875 C 169.765625 192.460938 170.355469 192.605469 170.988281 192.757812 C 171.0625 192.777344 171.136719 192.796875 171.21875 192.816406 C 169.21875 193.957031 168.140625 195.851562 168.390625 197.847656 C 168.597656 199.527344 169.71875 200.859375 171.375 201.457031 C 171.234375 202.195312 171.15625 203.402344 171.773438 204.550781 C 172.371094 205.65625 173.449219 206.441406 174.988281 206.882812 C 175.410156 208.320312 177.417969 210.464844 179.511719 210.769531 C 180.140625 210.859375 180.824219 210.90625 181.5625 210.90625 C 184.859375 210.90625 189.3125 209.992188 195.320312 208.089844 C 197.84375 207.296875 202.660156 206.484375 205.445312 206.773438 C 205.433594 206.820312 205.429688 206.878906 205.421875 206.925781 L 205.410156 207.023438 C 205.273438 207.792969 205.496094 208.578125 206.015625 209.171875 C 206.539062 209.773438 207.300781 210.105469 208.058594 210.089844 L 216.050781 210.519531 C 217.058594 210.5 218.257812 209.945312 218.5 208.773438 C 219.574219 203.570312 219.398438 189.882812 218.464844 186.15625 " fill-opacity="1" fill-rule="nonzero"/></g></svg>