<svg xmlns="http://www.w3.org/2000/svg" xmlns:xlink="http://www.w3.org/1999/xlink" width="500" zoomAndPan="magnify" viewBox="0 0 375 374.999991" height="500" preserveAspectRatio="xMidYMid meet" version="1.0"><defs><clipPath id="id1"><path d="M 172.488281 145.796875 L 224.238281 145.796875 L 224.238281 197.546875 L 172.488281 197.546875 Z M 172.488281 145.796875 " clip-rule="nonzero"/></clipPath></defs><g clip-path="url(#id1)"><path fill="#ffffff" d="M 218.601562 145.808594 L 178.121094 145.808594 C 177.75 145.804688 177.382812 145.839844 177.019531 145.90625 C 176.65625 145.976562 176.304688 146.082031 175.960938 146.222656 C 175.621094 146.363281 175.292969 146.535156 174.984375 146.738281 C 174.675781 146.945312 174.390625 147.175781 174.128906 147.4375 C 173.867188 147.699219 173.636719 147.984375 173.429688 148.292969 C 173.226562 148.601562 173.054688 148.929688 172.914062 149.269531 C 172.773438 149.613281 172.667969 149.964844 172.597656 150.328125 C 172.527344 150.695312 172.496094 151.058594 172.5 151.429688 L 172.5 179.542969 C 172.496094 179.914062 172.527344 180.277344 172.597656 180.644531 C 172.667969 181.007812 172.773438 181.359375 172.914062 181.703125 C 173.054688 182.042969 173.226562 182.371094 173.429688 182.679688 C 173.636719 182.988281 173.867188 183.273438 174.128906 183.535156 C 174.390625 183.796875 174.675781 184.027344 174.984375 184.234375 C 175.292969 184.4375 175.621094 184.609375 175.960938 184.75 C 176.304688 184.890625 176.65625 184.996094 177.019531 185.066406 C 177.382812 185.132812 177.75 185.167969 178.121094 185.164062 L 180.371094 185.164062 L 180.371094 195.285156 C 180.371094 196.296875 180.933594 197.082031 181.832031 197.421875 C 182.085938 197.503906 182.351562 197.539062 182.617188 197.527344 C 183.359375 197.511719 183.960938 197.214844 184.417969 196.628906 L 193.640625 185.164062 L 218.601562 185.164062 C 218.972656 185.167969 219.339844 185.132812 219.703125 185.066406 C 220.066406 184.996094 220.417969 184.890625 220.761719 184.75 C 221.105469 184.609375 221.429688 184.4375 221.738281 184.234375 C 222.046875 184.027344 222.332031 183.796875 222.59375 183.535156 C 222.855469 183.273438 223.089844 182.988281 223.292969 182.679688 C 223.5 182.371094 223.671875 182.042969 223.8125 181.703125 C 223.949219 181.359375 224.054688 181.007812 224.125 180.644531 C 224.195312 180.277344 224.226562 179.914062 224.222656 179.542969 L 224.222656 151.429688 C 224.226562 151.058594 224.195312 150.695312 224.125 150.328125 C 224.054688 149.964844 223.949219 149.613281 223.8125 149.269531 C 223.671875 148.929688 223.5 148.601562 223.292969 148.292969 C 223.089844 147.984375 222.855469 147.699219 222.59375 147.4375 C 222.332031 147.175781 222.046875 146.945312 221.738281 146.738281 C 221.429688 146.535156 221.105469 146.363281 220.761719 146.222656 C 220.417969 146.082031 220.066406 145.976562 219.703125 145.90625 C 219.339844 145.839844 218.972656 145.804688 218.601562 145.808594 Z M 189.140625 164.472656 L 187.460938 166.273438 C 187.234375 166.496094 187.121094 166.835938 187.234375 167.058594 L 187.675781 169.535156 C 187.738281 169.914062 187.617188 170.21875 187.308594 170.453125 C 187 170.683594 186.671875 170.714844 186.324219 170.546875 L 184.414062 169.421875 C 184.078125 169.3125 183.738281 169.3125 183.515625 169.421875 L 181.605469 170.546875 C 180.933594 170.882812 180.035156 170.320312 180.257812 169.535156 L 180.707031 167.058594 C 180.707031 166.722656 180.707031 166.496094 180.484375 166.273438 L 178.796875 164.472656 C 178.234375 163.910156 178.570312 163.011719 179.359375 162.898438 L 181.605469 162.5625 C 181.945312 162.5625 182.167969 162.339844 182.28125 162 L 183.292969 159.863281 C 183.632812 159.191406 184.644531 159.191406 184.980469 159.863281 L 185.992188 162 C 186.101562 162.339844 186.445312 162.449219 186.667969 162.5625 L 188.917969 162.902344 C 189.367188 162.898438 189.589844 163.910156 189.140625 164.472656 Z M 203.757812 164.472656 L 202.074219 166.273438 C 201.847656 166.496094 201.738281 166.835938 201.847656 167.058594 L 202.296875 169.535156 C 202.363281 169.914062 202.242188 170.21875 201.933594 170.453125 C 201.625 170.683594 201.296875 170.714844 200.949219 170.546875 L 199.039062 169.421875 C 198.699219 169.3125 198.363281 169.3125 198.136719 169.421875 L 196.226562 170.546875 C 195.550781 170.882812 194.652344 170.324219 194.878906 169.535156 L 195.328125 167.0625 C 195.328125 166.722656 195.328125 166.5 195.101562 166.273438 L 193.417969 164.476562 C 192.855469 163.914062 193.191406 163.011719 193.980469 162.902344 L 196.226562 162.5625 C 196.566406 162.5625 196.789062 162.339844 196.902344 162 L 197.914062 159.867188 C 198.253906 159.191406 199.265625 159.191406 199.601562 159.867188 L 200.613281 162 C 200.722656 162.339844 201.0625 162.453125 201.289062 162.5625 L 203.535156 162.902344 C 203.984375 162.898438 204.210938 163.910156 203.757812 164.472656 Z M 218.378906 164.472656 L 216.691406 166.273438 C 216.464844 166.496094 216.351562 166.835938 216.464844 167.058594 L 216.914062 169.535156 C 216.980469 169.914062 216.859375 170.21875 216.550781 170.453125 C 216.242188 170.683594 215.914062 170.714844 215.566406 170.546875 L 213.65625 169.421875 C 213.316406 169.3125 212.980469 169.3125 212.753906 169.421875 L 210.84375 170.546875 C 210.167969 170.882812 209.269531 170.324219 209.496094 169.535156 L 209.945312 167.0625 C 209.945312 166.722656 209.945312 166.5 209.71875 166.273438 L 208.035156 164.476562 C 207.472656 163.914062 207.808594 163.011719 208.597656 162.902344 L 210.84375 162.5625 C 211.183594 162.5625 211.40625 162.339844 211.519531 162 L 212.53125 159.867188 C 212.871094 159.191406 213.882812 159.191406 214.21875 159.867188 L 215.230469 162 C 215.339844 162.339844 215.683594 162.453125 215.90625 162.5625 L 218.15625 162.902344 C 218.601562 162.898438 218.828125 163.910156 218.378906 164.472656 Z M 218.378906 164.472656 " fill-opacity="1" fill-rule="nonzero"/></g></svg>