<svg xmlns="http://www.w3.org/2000/svg" xmlns:xlink="http://www.w3.org/1999/xlink" width="500" zoomAndPan="magnify" viewBox="0 0 375 374.999991" height="500" preserveAspectRatio="xMidYMid meet" version="1.0"><defs><clipPath id="id1"><path d="M 151.433594 163.347656 L 180 163.347656 L 180 192 L 151.433594 192 Z M 151.433594 163.347656 " clip-rule="nonzero"/></clipPath><clipPath id="id2"><path d="M 165 205 L 172 205 L 172 211.347656 L 165 211.347656 Z M 165 205 " clip-rule="nonzero"/></clipPath><clipPath id="id3"><path d="M 177 205 L 184 205 L 184 211.347656 L 177 211.347656 Z M 177 205 " clip-rule="nonzero"/></clipPath><clipPath id="id4"><path d="M 162 178 L 199.433594 178 L 199.433594 206 L 162 206 Z M 162 178 " clip-rule="nonzero"/></clipPath><clipPath id="id5"><path d="M 180 163.347656 L 186 163.347656 L 186 168 L 180 168 Z M 180 163.347656 " clip-rule="nonzero"/></clipPath></defs><path fill="#ffffff" d="M 165.328125 187.269531 C 165.539062 187.375 165.808594 187.375 166.019531 187.269531 C 166.421875 187.054688 176.179688 181.882812 176.179688 176.097656 C 176.207031 174.65625 175.621094 173.242188 174.554688 172.257812 C 173.566406 171.347656 172.261719 170.84375 170.925781 170.84375 C 168.714844 170.894531 166.714844 172.121094 165.675781 174.070312 C 164.660156 172.148438 162.632812 170.894531 160.449219 170.84375 C 159.113281 170.84375 157.808594 171.347656 156.820312 172.257812 C 155.753906 173.242188 155.167969 174.65625 155.195312 176.097656 C 155.195312 181.882812 164.925781 187.054688 165.328125 187.269531 Z M 157.835938 173.347656 C 158.554688 172.710938 159.460938 172.335938 160.421875 172.335938 C 162.632812 172.46875 164.5 174.070312 164.925781 176.257812 C 165.035156 176.65625 165.433594 176.894531 165.835938 176.789062 C 166.101562 176.710938 166.3125 176.523438 166.367188 176.257812 C 166.792969 174.042969 168.660156 172.441406 170.902344 172.335938 C 171.859375 172.335938 172.792969 172.683594 173.515625 173.347656 C 174.261719 174.042969 174.6875 175.054688 174.660156 176.097656 C 174.6875 180.417969 167.382812 184.789062 165.675781 185.75 C 163.996094 184.789062 156.6875 180.417969 156.6875 176.097656 C 156.660156 175.054688 157.0625 174.070312 157.835938 173.347656 Z M 157.835938 173.347656 " fill-opacity="1" fill-rule="nonzero"/><g clip-path="url(#id1)"><path fill="#ffffff" d="M 165.675781 191.855469 C 173.539062 191.855469 179.914062 185.484375 179.914062 177.617188 C 179.914062 169.75 173.566406 163.347656 165.675781 163.347656 C 157.78125 163.347656 151.433594 169.722656 151.433594 177.589844 C 151.433594 185.457031 157.808594 191.855469 165.675781 191.855469 Z M 165.675781 164.84375 C 172.714844 164.84375 178.421875 170.550781 178.421875 177.589844 C 178.421875 184.628906 172.714844 190.335938 165.675781 190.335938 C 158.632812 190.335938 152.925781 184.628906 152.925781 177.589844 C 152.925781 170.550781 158.632812 164.84375 165.675781 164.84375 Z M 165.675781 164.84375 " fill-opacity="1" fill-rule="nonzero"/></g><g clip-path="url(#id2)"><path fill="#ffffff" d="M 165.675781 208.363281 C 165.675781 210.015625 167.007812 211.347656 168.660156 211.347656 C 170.3125 211.347656 171.648438 210.015625 171.648438 208.363281 C 171.648438 206.710938 170.3125 205.375 168.660156 205.375 C 167.007812 205.375 165.675781 206.683594 165.675781 208.363281 Z M 168.6875 206.84375 C 169.515625 206.84375 170.179688 207.507812 170.179688 208.335938 C 170.179688 209.164062 169.515625 209.828125 168.6875 209.828125 C 167.859375 209.828125 167.195312 209.164062 167.195312 208.335938 C 167.195312 207.507812 167.859375 206.84375 168.6875 206.84375 Z M 168.6875 206.84375 " fill-opacity="1" fill-rule="nonzero"/></g><g clip-path="url(#id3)"><path fill="#ffffff" d="M 177.675781 208.363281 C 177.675781 210.015625 179.007812 211.347656 180.660156 211.347656 C 182.3125 211.347656 183.648438 210.015625 183.648438 208.363281 C 183.648438 206.710938 182.3125 205.375 180.660156 205.375 C 179.007812 205.375 177.675781 206.683594 177.675781 208.363281 Z M 180.6875 206.84375 C 181.515625 206.84375 182.179688 207.507812 182.179688 208.335938 C 182.179688 209.164062 181.515625 209.828125 180.6875 209.828125 C 179.859375 209.828125 179.195312 209.164062 179.195312 208.335938 C 179.195312 207.507812 179.859375 206.84375 180.6875 206.84375 Z M 180.6875 206.84375 " fill-opacity="1" fill-rule="nonzero"/></g><g clip-path="url(#id4)"><path fill="#ffffff" d="M 197.941406 178.335938 L 193.433594 178.335938 C 192.609375 178.335938 191.941406 179.003906 191.941406 179.828125 L 188.953125 179.828125 C 188.609375 179.828125 188.289062 180.070312 188.207031 180.390625 L 187.621094 182.816406 L 180.714844 182.816406 L 180.714844 184.308594 L 188.207031 184.308594 C 188.632812 184.308594 188.953125 184.65625 188.953125 185.054688 C 188.953125 185.457031 188.609375 185.804688 188.207031 185.804688 L 178.449219 185.804688 L 178.449219 187.347656 L 179.835938 187.347656 L 178.925781 193.347656 L 170.3125 193.347656 L 170.179688 192.46875 L 168.6875 192.710938 L 168.792969 193.347656 L 164.046875 193.347656 L 163.859375 192.441406 L 162.367188 192.734375 L 164.179688 201.75 C 164.261719 202.097656 164.582031 202.363281 164.925781 202.335938 L 183.488281 202.335938 L 183.113281 203.828125 L 164.925781 203.828125 C 164.5 203.828125 164.179688 204.175781 164.179688 204.574219 C 164.179688 204.976562 164.527344 205.324219 164.925781 205.324219 L 183.675781 205.324219 C 184.019531 205.324219 184.339844 205.082031 184.421875 204.761719 L 185.167969 201.777344 L 188.046875 187.347656 L 188.179688 187.347656 C 189.433594 187.347656 190.421875 186.335938 190.421875 185.109375 C 190.421875 184.230469 189.886719 183.429688 189.085938 183.054688 L 189.515625 181.347656 L 191.941406 181.347656 C 191.941406 182.175781 192.609375 182.84375 193.433594 182.84375 L 197.941406 182.84375 C 198.769531 182.84375 199.433594 182.175781 199.433594 181.347656 L 199.433594 179.855469 C 199.433594 179.03125 198.769531 178.335938 197.941406 178.335938 Z M 178.6875 194.84375 L 177.78125 200.84375 L 171.566406 200.84375 L 170.554688 194.84375 Z M 183.808594 200.84375 L 179.300781 200.84375 L 180.207031 194.84375 L 185.035156 194.84375 Z M 164.3125 194.84375 L 169.035156 194.84375 L 170.019531 200.84375 L 165.515625 200.84375 Z M 185.328125 193.347656 L 180.449219 193.347656 L 181.355469 187.347656 L 186.554688 187.347656 Z M 193.433594 181.347656 L 193.433594 179.855469 L 197.941406 179.855469 L 197.941406 181.347656 Z M 193.433594 181.347656 " fill-opacity="1" fill-rule="nonzero"/></g><path fill="#ffffff" d="M 185.941406 174.601562 L 186.6875 174.601562 L 186.6875 175.347656 C 186.6875 175.777344 187.035156 176.097656 187.433594 176.097656 C 187.835938 176.097656 188.179688 175.75 188.179688 175.347656 L 188.179688 174.601562 L 188.925781 174.601562 C 189.355469 174.601562 189.675781 174.257812 189.675781 173.855469 C 189.675781 173.457031 189.328125 173.109375 188.925781 173.109375 L 188.179688 173.109375 L 188.179688 172.363281 C 188.179688 171.9375 187.835938 171.617188 187.433594 171.617188 C 187.035156 171.617188 186.6875 171.960938 186.6875 172.363281 L 186.6875 173.109375 L 185.941406 173.109375 C 185.515625 173.109375 185.195312 173.457031 185.195312 173.855469 C 185.195312 174.257812 185.515625 174.601562 185.941406 174.601562 Z M 185.941406 174.601562 " fill-opacity="1" fill-rule="nonzero"/><g clip-path="url(#id5)"><path fill="#ffffff" d="M 181.433594 166.335938 L 182.179688 166.335938 L 182.179688 167.082031 C 182.179688 167.507812 182.527344 167.828125 182.925781 167.828125 C 183.328125 167.828125 183.675781 167.484375 183.675781 167.082031 L 183.675781 166.335938 L 184.421875 166.335938 C 184.847656 166.335938 185.167969 165.988281 185.167969 165.589844 C 185.167969 165.1875 184.820312 164.84375 184.421875 164.84375 L 183.675781 164.84375 L 183.675781 164.097656 C 183.675781 163.667969 183.328125 163.347656 182.925781 163.347656 C 182.527344 163.347656 182.179688 163.695312 182.179688 164.097656 L 182.179688 164.84375 L 181.433594 164.84375 C 181.007812 164.84375 180.6875 165.1875 180.6875 165.589844 C 180.6875 165.988281 181.007812 166.335938 181.433594 166.335938 Z M 181.433594 166.335938 " fill-opacity="1" fill-rule="nonzero"/></g><path fill="#ffffff" d="M 158.179688 197.109375 L 157.433594 197.109375 L 157.433594 196.363281 C 157.433594 195.9375 157.085938 195.617188 156.6875 195.617188 C 156.289062 195.617188 155.941406 195.960938 155.941406 196.363281 L 155.941406 197.109375 L 155.195312 197.109375 C 154.769531 197.109375 154.449219 197.457031 154.449219 197.855469 C 154.449219 198.257812 154.792969 198.601562 155.195312 198.601562 L 155.941406 198.601562 L 155.941406 199.347656 C 155.941406 199.777344 156.289062 200.097656 156.6875 200.097656 C 157.085938 200.097656 157.433594 199.75 157.433594 199.347656 L 157.433594 198.601562 L 158.179688 198.601562 C 158.609375 198.601562 158.925781 198.257812 158.925781 197.855469 C 158.925781 197.457031 158.609375 197.109375 158.179688 197.109375 Z M 158.179688 197.109375 " fill-opacity="1" fill-rule="nonzero"/></svg>