<svg xmlns="http://www.w3.org/2000/svg" xmlns:xlink="http://www.w3.org/1999/xlink" width="167" zoomAndPan="magnify" viewBox="0 0 125.25 52.499999" height="70" preserveAspectRatio="xMidYMid meet" version="1.0"><defs><g/><clipPath id="id1"><path d="M 1.671875 1.558594 L 50.707031 1.558594 L 50.707031 50.59375 L 1.671875 50.59375 Z M 1.671875 1.558594 " clip-rule="nonzero"/></clipPath><clipPath id="id2"><path d="M 1.757812 13.21875 L 22.714844 13.21875 L 22.714844 36.972656 L 1.757812 36.972656 Z M 1.757812 13.21875 " clip-rule="nonzero"/></clipPath><clipPath id="id3"><path d="M 24.460938 13.21875 L 45.417969 13.21875 L 45.417969 36.972656 L 24.460938 36.972656 Z M 24.460938 13.21875 " clip-rule="nonzero"/></clipPath></defs><g clip-path="url(#id1)"><path fill="#233dff" d="M 50.707031 45.691406 C 50.707031 48.398438 48.511719 50.59375 45.800781 50.59375 L 6.574219 50.59375 C 3.867188 50.59375 1.671875 48.398438 1.671875 45.691406 L 1.671875 6.464844 C 1.671875 3.753906 3.867188 1.558594 6.574219 1.558594 L 45.800781 1.558594 C 48.511719 1.558594 50.707031 3.753906 50.707031 6.464844 Z M 50.707031 45.691406 " fill-opacity="1" fill-rule="nonzero"/></g><g clip-path="url(#id2)"><path fill="#ffffff" d="M 21.796875 27.367188 C 21.589844 28.398438 21.09375 29.308594 20.375 30.035156 C 20.367188 30.035156 20.367188 30.035156 20.367188 30.035156 C 20.324219 30.074219 16.15625 33.589844 11.273438 33.914062 C 9.476562 34.039062 7.960938 34.824219 7.042969 36.132812 C 4.867188 35.964844 3.320312 33.398438 2.777344 32.335938 C 3.96875 31.984375 6.769531 30.816406 7.265625 27.542969 C 7.640625 25.140625 8.289062 22.476562 8.714844 20.824219 L 9.152344 19.210938 C 9.152344 19.203125 9.152344 19.203125 9.152344 19.203125 C 10.289062 15.824219 12.210938 14.21875 12.304688 14.140625 C 12.382812 14.078125 12.484375 14.050781 12.585938 14.0625 C 12.691406 14.070312 12.777344 14.125 12.847656 14.203125 C 12.976562 14.367188 12.953125 14.613281 12.785156 14.746094 C 12.691406 14.824219 10.339844 16.808594 9.460938 21.035156 C 9.414062 21.246094 9.539062 21.457031 9.738281 21.519531 C 9.949219 21.589844 10.167969 21.480469 10.253906 21.28125 C 12.410156 16.140625 16.847656 15.054688 17.03125 15.007812 C 17.242188 14.964844 17.449219 15.085938 17.492188 15.300781 C 17.546875 15.507812 17.414062 15.710938 17.207031 15.761719 C 17.074219 15.800781 13.871094 16.605469 11.757812 20.035156 C 11.644531 20.226562 11.6875 20.472656 11.867188 20.605469 C 12.050781 20.726562 12.304688 20.695312 12.4375 20.519531 C 14.785156 17.484375 18.289062 18.015625 19.988281 18.816406 C 20.183594 18.90625 20.269531 19.132812 20.183594 19.328125 C 20.097656 19.519531 19.859375 19.605469 19.667969 19.507812 C 19.476562 19.421875 14.828125 17.375 12.367188 22.054688 C 12.269531 22.234375 12.320312 22.464844 12.488281 22.589844 C 12.65625 22.710938 12.882812 22.703125 13.03125 22.554688 C 14.011719 21.597656 15.308594 21.0625 16.671875 21.0625 C 18.664062 21.0625 20.453125 22.167969 21.34375 23.949219 C 21.441406 24.140625 21.359375 24.378906 21.175781 24.472656 C 21.082031 24.519531 20.980469 24.527344 20.878906 24.492188 C 20.785156 24.457031 20.707031 24.394531 20.65625 24.296875 C 19.703125 22.398438 17.570312 21.449219 15.496094 21.992188 C 13.910156 22.402344 12.671875 23.710938 12.320312 25.316406 C 11.941406 27.089844 12.59375 28.851562 14.027344 29.921875 C 15.496094 31.019531 17.398438 31.097656 19.117188 30.132812 C 20.3125 29.457031 20.796875 28.132812 21.046875 27.195312 C 21.109375 26.992188 21.292969 26.878906 21.5 26.914062 C 21.710938 26.957031 21.84375 27.167969 21.796875 27.367188 Z M 21.667969 26.097656 C 21.039062 25.96875 20.417969 26.351562 20.242188 26.964844 C 19.894531 28.246094 19.425781 29 18.707031 29.398438 C 17.285156 30.195312 15.71875 30.140625 14.527344 29.246094 C 13.355469 28.378906 12.832031 26.941406 13.136719 25.5 C 13.425781 24.191406 14.429688 23.140625 15.703125 22.808594 C 17.398438 22.359375 19.132812 23.132812 19.910156 24.675781 C 20.0625 24.972656 20.3125 25.1875 20.621094 25.292969 C 20.933594 25.394531 21.265625 25.371094 21.550781 25.21875 C 22.15625 24.910156 22.390625 24.175781 22.085938 23.570312 C 21.058594 21.507812 18.976562 20.226562 16.671875 20.226562 C 15.992188 20.226562 15.328125 20.34375 14.699219 20.554688 C 16.6875 19.160156 18.992188 20.132812 19.316406 20.28125 C 19.929688 20.554688 20.65625 20.289062 20.941406 19.675781 C 21.222656 19.0625 20.953125 18.332031 20.347656 18.050781 C 19.152344 17.492188 17.179688 17.054688 15.222656 17.613281 C 16.382812 16.835938 17.335938 16.59375 17.40625 16.578125 C 18.050781 16.421875 18.460938 15.761719 18.304688 15.105469 C 18.160156 14.457031 17.503906 14.046875 16.847656 14.191406 C 16.6875 14.226562 14.015625 14.886719 11.695312 17.4375 C 12.488281 16.097656 13.265625 15.441406 13.316406 15.394531 C 13.832031 14.964844 13.910156 14.191406 13.496094 13.675781 C 13.285156 13.421875 12.996094 13.253906 12.664062 13.226562 C 12.34375 13.191406 12.027344 13.289062 11.773438 13.492188 C 11.488281 13.738281 8.882812 15.976562 7.886719 20.695312 C 7.667969 21.535156 7.398438 22.617188 7.136719 23.78125 C 6.886719 24.957031 6.628906 26.222656 6.449219 27.421875 C 5.894531 30.96875 2.261719 31.613281 2.105469 31.640625 C 1.984375 31.660156 1.871094 31.738281 1.808594 31.851562 C 1.746094 31.96875 1.742188 32.097656 1.792969 32.222656 C 1.871094 32.414062 3.851562 36.972656 7.261719 36.972656 C 7.398438 36.972656 7.558594 36.871094 7.636719 36.746094 C 8.367188 35.589844 9.710938 34.859375 11.328125 34.757812 C 14.828125 34.519531 17.921875 32.789062 19.585938 31.660156 C 21.160156 30.792969 22.261719 29.292969 22.621094 27.535156 C 22.75 26.878906 22.324219 26.226562 21.667969 26.097656 " fill-opacity="1" fill-rule="nonzero"/></g><g clip-path="url(#id3)"><path fill="#ffffff" d="M 39.910156 22.648438 C 39.535156 25.046875 38.898438 27.703125 38.460938 29.351562 L 38.023438 30.984375 C 38.023438 30.992188 38.023438 30.992188 38.023438 30.992188 C 36.886719 34.371094 34.96875 35.976562 34.867188 36.054688 C 34.710938 36.1875 34.46875 36.160156 34.328125 35.992188 C 34.199219 35.828125 34.222656 35.589844 34.390625 35.449219 C 34.488281 35.371094 36.832031 33.378906 37.71875 29.15625 C 37.761719 28.949219 37.640625 28.738281 37.4375 28.679688 C 37.394531 28.660156 37.351562 28.660156 37.308594 28.660156 C 37.152344 28.660156 36.992188 28.757812 36.921875 28.914062 C 34.773438 34.042969 30.328125 35.140625 30.148438 35.183594 C 29.929688 35.230469 29.730469 35.105469 29.683594 34.898438 C 29.628906 34.683594 29.761719 34.484375 29.972656 34.429688 C 30.105469 34.398438 33.308594 33.589844 35.421875 30.160156 C 35.535156 29.964844 35.488281 29.71875 35.304688 29.589844 C 35.125 29.464844 34.867188 29.5 34.738281 29.675781 C 32.390625 32.710938 28.890625 32.175781 27.1875 31.378906 C 27.09375 31.332031 27.019531 31.265625 26.984375 31.167969 C 26.949219 31.074219 26.949219 30.96875 26.996094 30.871094 C 27.082031 30.675781 27.316406 30.589844 27.507812 30.6875 C 27.710938 30.773438 32.347656 32.808594 34.8125 28.140625 C 34.90625 27.957031 34.855469 27.730469 34.6875 27.605469 C 34.519531 27.480469 34.296875 27.503906 34.144531 27.644531 C 33.167969 28.597656 31.867188 29.132812 30.503906 29.132812 C 28.515625 29.132812 26.730469 28.027344 25.832031 26.246094 C 25.789062 26.148438 25.78125 26.046875 25.804688 25.949219 C 25.84375 25.851562 25.910156 25.773438 26.007812 25.71875 C 26.097656 25.675781 26.199219 25.667969 26.292969 25.703125 C 26.390625 25.738281 26.472656 25.800781 26.523438 25.894531 C 27.472656 27.800781 29.605469 28.746094 31.683594 28.203125 C 33.265625 27.789062 34.503906 26.484375 34.855469 24.878906 C 35.238281 23.105469 34.59375 21.339844 33.148438 20.273438 C 31.683594 19.175781 29.78125 19.097656 28.058594 20.0625 C 26.863281 20.738281 26.382812 22.0625 26.128906 23 C 26.070312 23.203125 25.878906 23.316406 25.675781 23.28125 C 25.582031 23.257812 25.492188 23.203125 25.429688 23.113281 C 25.378906 23.027344 25.351562 22.921875 25.378906 22.824219 C 25.585938 21.800781 26.085938 20.886719 26.800781 20.164062 C 26.8125 20.160156 26.8125 20.160156 26.8125 20.160156 C 26.851562 20.125 31.019531 16.605469 35.910156 16.28125 C 37.699219 16.15625 39.222656 15.367188 40.136719 14.0625 C 42.3125 14.226562 43.855469 16.796875 44.398438 17.859375 C 43.207031 18.210938 40.410156 19.378906 39.910156 22.648438 Z M 45.386719 17.972656 C 45.304688 17.78125 43.324219 13.21875 39.917969 13.21875 C 39.777344 13.21875 39.621094 13.324219 39.542969 13.445312 C 38.808594 14.605469 37.464844 15.335938 35.847656 15.441406 C 32.347656 15.675781 29.265625 17.402344 27.589844 18.535156 C 26.015625 19.40625 24.914062 20.902344 24.558594 22.65625 C 24.496094 22.976562 24.558594 23.296875 24.730469 23.578125 C 24.914062 23.851562 25.195312 24.035156 25.507812 24.097656 C 26.136719 24.230469 26.757812 23.84375 26.933594 23.230469 C 27.28125 21.949219 27.753906 21.195312 28.46875 20.800781 C 29.890625 20 31.457031 20.054688 32.652344 20.945312 C 33.820312 21.816406 34.347656 23.257812 34.039062 24.691406 C 33.753906 26 32.746094 27.054688 31.476562 27.386719 C 29.78125 27.835938 28.039062 27.0625 27.265625 25.519531 C 27.117188 25.21875 26.863281 25.011719 26.558594 24.90625 C 26.242188 24.796875 25.910156 24.828125 25.625 24.972656 C 25.335938 25.125 25.117188 25.378906 25.011719 25.6875 C 24.914062 26 24.941406 26.335938 25.089844 26.625 C 26.128906 28.683594 28.199219 29.964844 30.503906 29.964844 C 31.183594 29.964844 31.851562 29.859375 32.46875 29.640625 C 30.488281 31.027344 28.183594 30.0625 27.859375 29.914062 C 27.25 29.632812 26.523438 29.90625 26.234375 30.519531 C 26.101562 30.816406 26.085938 31.152344 26.199219 31.457031 C 26.3125 31.765625 26.539062 32.007812 26.828125 32.140625 C 28.027344 32.703125 29.996094 33.144531 31.960938 32.582031 C 30.792969 33.363281 29.839844 33.597656 29.773438 33.617188 C 29.125 33.773438 28.714844 34.429688 28.871094 35.089844 C 29.019531 35.738281 29.675781 36.152344 30.328125 36 C 30.488281 35.964844 33.160156 35.308594 35.484375 32.746094 C 34.6875 34.097656 33.910156 34.757812 33.859375 34.800781 C 33.339844 35.230469 33.265625 36 33.683594 36.519531 C 33.925781 36.816406 34.277344 36.972656 34.636719 36.972656 C 34.90625 36.972656 35.175781 36.886719 35.40625 36.703125 C 35.5 36.613281 37.605469 34.871094 38.820312 31.238281 C 38.820312 31.238281 38.824219 31.230469 38.824219 31.21875 C 39.003906 30.6875 39.160156 30.113281 39.289062 29.511719 C 39.289062 29.5 39.289062 29.5 39.289062 29.5 C 39.726562 27.824219 40.363281 25.175781 40.734375 22.773438 C 41.28125 19.226562 44.914062 18.578125 45.070312 18.550781 C 45.191406 18.535156 45.304688 18.457031 45.367188 18.34375 C 45.429688 18.230469 45.4375 18.097656 45.386719 17.972656 " fill-opacity="1" fill-rule="nonzero"/></g><g fill="#282120" fill-opacity="1"><g transform="translate(58.059236, 32.185011)"><g><path d="M 7.796875 -0.34375 L 6.46875 -4.234375 L 2.90625 -4.234375 L 1.515625 -0.34375 L 2.859375 -0.34375 L 2.859375 0 L 0.109375 0 L 0.109375 -0.34375 L 0.953125 -0.34375 L 5.546875 -12.734375 L 7.03125 -12.734375 L 11.578125 -0.34375 L 12.40625 -0.34375 L 12.40625 0 L 6.515625 0 L 6.515625 -0.34375 Z M 4.765625 -9.359375 L 3.0625 -4.640625 L 6.328125 -4.640625 Z M 4.765625 -9.359375 "/></g></g></g><g fill="#282120" fill-opacity="1"><g transform="translate(70.570285, 32.185011)"><g><path d="M 6.34375 -8.265625 L 6.34375 -8.578125 L 11 -8.578125 L 11 -8.265625 L 10.265625 -8.265625 L 11.875 -2.1875 L 13.484375 -8.265625 L 12.25 -8.265625 L 12.25 -8.578125 L 14.671875 -8.578125 L 14.671875 -8.265625 L 13.921875 -8.265625 L 11.75 0 L 9.28125 0 L 7.71875 -5.53125 L 6.015625 0 L 3.609375 0 L 0.9375 -8.265625 L 0.125 -8.265625 L 0.125 -8.578125 L 5.59375 -8.578125 L 5.59375 -8.265625 L 4.515625 -8.265625 L 6.171875 -2.125 L 7.46875 -6.34375 L 7.015625 -8.265625 Z M 6.34375 -8.265625 "/></g></g></g><g fill="#282120" fill-opacity="1"><g transform="translate(85.605188, 32.185011)"><g><path d="M 4.515625 -4.234375 L 5.03125 -4.234375 L 5.03125 -5.625 C 5.03125 -6.769531 4.96875 -7.535156 4.84375 -7.921875 C 4.71875 -8.316406 4.472656 -8.515625 4.109375 -8.515625 C 3.890625 -8.515625 3.691406 -8.457031 3.515625 -8.34375 C 3.347656 -8.226562 3.265625 -8.070312 3.265625 -7.875 C 3.265625 -7.675781 3.300781 -7.472656 3.375 -7.265625 L 3.828125 -7.265625 C 3.921875 -7.015625 3.96875 -6.710938 3.96875 -6.359375 C 3.96875 -6.003906 3.816406 -5.695312 3.515625 -5.4375 C 3.210938 -5.175781 2.832031 -5.046875 2.375 -5.046875 C 1.34375 -5.046875 0.828125 -5.546875 0.828125 -6.546875 C 0.828125 -8.023438 2.082031 -8.765625 4.59375 -8.765625 C 6.03125 -8.765625 7.019531 -8.519531 7.5625 -8.03125 C 8.113281 -7.539062 8.390625 -6.648438 8.390625 -5.359375 L 8.390625 -1.6875 C 8.390625 -1.0625 8.5625 -0.75 8.90625 -0.75 C 9.3125 -0.75 9.550781 -1.367188 9.625 -2.609375 L 9.90625 -2.59375 C 9.851562 -1.539062 9.648438 -0.8125 9.296875 -0.40625 C 8.953125 -0.0078125 8.382812 0.1875 7.59375 0.1875 C 6.144531 0.1875 5.316406 -0.257812 5.109375 -1.15625 C 4.953125 -0.695312 4.71875 -0.359375 4.40625 -0.140625 C 4.09375 0.078125 3.632812 0.1875 3.03125 0.1875 C 1.25 0.1875 0.359375 -0.539062 0.359375 -2 C 0.359375 -2.851562 0.695312 -3.4375 1.375 -3.75 C 2.050781 -4.070312 3.097656 -4.234375 4.515625 -4.234375 Z M 3.78125 -2.015625 C 3.78125 -1.390625 3.8125 -0.988281 3.875 -0.8125 C 3.945312 -0.632812 4.078125 -0.546875 4.265625 -0.546875 C 4.453125 -0.546875 4.625 -0.695312 4.78125 -1 C 4.945312 -1.300781 5.03125 -1.722656 5.03125 -2.265625 L 5.03125 -3.953125 L 4.90625 -3.953125 C 4.15625 -3.953125 3.78125 -3.40625 3.78125 -2.3125 Z M 3.78125 -2.015625 "/></g></g></g><g fill="#282120" fill-opacity="1"><g transform="translate(95.502262, 32.185011)"><g><path d="M 4.515625 -4.234375 L 5.03125 -4.234375 L 5.03125 -5.625 C 5.03125 -6.769531 4.96875 -7.535156 4.84375 -7.921875 C 4.71875 -8.316406 4.472656 -8.515625 4.109375 -8.515625 C 3.890625 -8.515625 3.691406 -8.457031 3.515625 -8.34375 C 3.347656 -8.226562 3.265625 -8.070312 3.265625 -7.875 C 3.265625 -7.675781 3.300781 -7.472656 3.375 -7.265625 L 3.828125 -7.265625 C 3.921875 -7.015625 3.96875 -6.710938 3.96875 -6.359375 C 3.96875 -6.003906 3.816406 -5.695312 3.515625 -5.4375 C 3.210938 -5.175781 2.832031 -5.046875 2.375 -5.046875 C 1.34375 -5.046875 0.828125 -5.546875 0.828125 -6.546875 C 0.828125 -8.023438 2.082031 -8.765625 4.59375 -8.765625 C 6.03125 -8.765625 7.019531 -8.519531 7.5625 -8.03125 C 8.113281 -7.539062 8.390625 -6.648438 8.390625 -5.359375 L 8.390625 -1.6875 C 8.390625 -1.0625 8.5625 -0.75 8.90625 -0.75 C 9.3125 -0.75 9.550781 -1.367188 9.625 -2.609375 L 9.90625 -2.59375 C 9.851562 -1.539062 9.648438 -0.8125 9.296875 -0.40625 C 8.953125 -0.0078125 8.382812 0.1875 7.59375 0.1875 C 6.144531 0.1875 5.316406 -0.257812 5.109375 -1.15625 C 4.953125 -0.695312 4.71875 -0.359375 4.40625 -0.140625 C 4.09375 0.078125 3.632812 0.1875 3.03125 0.1875 C 1.25 0.1875 0.359375 -0.539062 0.359375 -2 C 0.359375 -2.851562 0.695312 -3.4375 1.375 -3.75 C 2.050781 -4.070312 3.097656 -4.234375 4.515625 -4.234375 Z M 3.78125 -2.015625 C 3.78125 -1.390625 3.8125 -0.988281 3.875 -0.8125 C 3.945312 -0.632812 4.078125 -0.546875 4.265625 -0.546875 C 4.453125 -0.546875 4.625 -0.695312 4.78125 -1 C 4.945312 -1.300781 5.03125 -1.722656 5.03125 -2.265625 L 5.03125 -3.953125 L 4.90625 -3.953125 C 4.15625 -3.953125 3.78125 -3.40625 3.78125 -2.3125 Z M 3.78125 -2.015625 "/></g></g></g><g fill="#282120" fill-opacity="1"><g transform="translate(105.399336, 32.185011)"><g><path d="M 8.5625 -8.578125 L 8.5625 -8.265625 L 4.296875 -0.328125 L 4.53125 -0.328125 C 5.539062 -0.328125 6.332031 -0.585938 6.90625 -1.109375 C 7.476562 -1.640625 7.929688 -2.503906 8.265625 -3.703125 L 8.515625 -3.703125 L 8.21875 0 L 0.65625 0 L 0.65625 -0.265625 L 5 -8.265625 L 4.796875 -8.265625 C 3.578125 -8.265625 2.726562 -8.0625 2.25 -7.65625 C 1.78125 -7.257812 1.359375 -6.414062 0.984375 -5.125 L 0.75 -5.125 L 0.984375 -8.578125 Z M 8.5625 -8.578125 "/></g></g></g></svg>