<svg xmlns="http://www.w3.org/2000/svg" xmlns:xlink="http://www.w3.org/1999/xlink" width="500" zoomAndPan="magnify" viewBox="0 0 375 374.999991" height="500" preserveAspectRatio="xMidYMid meet" version="1.0"><defs><g/><clipPath id="id1"><path d="M 29.234375 55.382812 L 61.878906 55.382812 L 61.878906 92.105469 L 29.234375 92.105469 Z M 29.234375 55.382812 " clip-rule="nonzero"/></clipPath><clipPath id="id2"><path d="M 64.597656 55.382812 L 97.238281 55.382812 L 97.238281 92.105469 L 64.597656 92.105469 Z M 64.597656 55.382812 " clip-rule="nonzero"/></clipPath></defs><path fill="#233dff" d="M 28.492188 37.5 L 97.492188 37.5 L 97.492188 110.25 L 28.492188 110.25 L 28.492188 37.5 " fill-opacity="1" fill-rule="nonzero"/><g clip-path="url(#id1)"><path fill="#f4f6fc" d="M 60.449219 77.257812 C 60.125 78.84375 59.347656 80.253906 58.234375 81.378906 C 58.214844 81.378906 58.214844 81.378906 58.214844 81.378906 C 58.152344 81.433594 51.660156 86.871094 44.058594 87.375 C 41.257812 87.5625 38.894531 88.78125 37.464844 90.804688 C 34.074219 90.546875 31.667969 86.574219 30.824219 84.929688 C 32.679688 84.390625 37.039062 82.585938 37.816406 77.527344 C 38.398438 73.8125 39.410156 69.691406 40.074219 67.136719 L 40.753906 64.644531 C 40.753906 64.632812 40.753906 64.632812 40.753906 64.632812 C 42.523438 59.410156 45.515625 56.929688 45.664062 56.808594 C 45.785156 56.714844 45.9375 56.671875 46.097656 56.6875 C 46.261719 56.699219 46.402344 56.78125 46.507812 56.902344 C 46.710938 57.160156 46.671875 57.539062 46.410156 57.742188 C 46.261719 57.863281 42.601562 60.929688 41.230469 67.464844 C 41.164062 67.789062 41.355469 68.117188 41.667969 68.214844 C 41.992188 68.320312 42.332031 68.15625 42.46875 67.847656 C 45.828125 59.898438 52.738281 58.21875 53.019531 58.148438 C 53.351562 58.078125 53.675781 58.269531 53.742188 58.597656 C 53.828125 58.921875 53.621094 59.234375 53.296875 59.3125 C 53.089844 59.371094 48.101562 60.617188 44.808594 65.917969 C 44.632812 66.214844 44.699219 66.597656 44.984375 66.800781 C 45.269531 66.988281 45.664062 66.9375 45.871094 66.667969 C 49.523438 61.972656 54.980469 62.800781 57.632812 64.035156 C 57.933594 64.171875 58.066406 64.519531 57.933594 64.824219 C 57.796875 65.121094 57.429688 65.257812 57.132812 65.105469 C 56.832031 64.972656 49.59375 61.808594 45.757812 69.039062 C 45.609375 69.320312 45.6875 69.675781 45.949219 69.867188 C 46.210938 70.058594 46.5625 70.042969 46.792969 69.8125 C 48.320312 68.335938 50.34375 67.507812 52.464844 67.507812 C 55.566406 67.507812 58.355469 69.214844 59.742188 71.96875 C 59.890625 72.265625 59.769531 72.632812 59.480469 72.78125 C 59.332031 72.847656 59.171875 72.863281 59.019531 72.8125 C 58.871094 72.753906 58.746094 72.65625 58.667969 72.507812 C 57.1875 69.570312 53.867188 68.101562 50.628906 68.945312 C 48.164062 69.582031 46.238281 71.605469 45.6875 74.082031 C 45.09375 76.820312 46.113281 79.550781 48.34375 81.203125 C 50.628906 82.898438 53.59375 83.019531 56.273438 81.53125 C 58.136719 80.480469 58.886719 78.4375 59.277344 76.984375 C 59.375 76.671875 59.660156 76.5 59.984375 76.550781 C 60.316406 76.621094 60.515625 76.945312 60.449219 77.257812 Z M 60.246094 75.289062 C 59.269531 75.089844 58.300781 75.683594 58.027344 76.628906 C 57.484375 78.613281 56.75 79.777344 55.632812 80.390625 C 53.417969 81.625 50.980469 81.542969 49.121094 80.160156 C 47.300781 78.820312 46.480469 76.59375 46.960938 74.367188 C 47.40625 72.34375 48.972656 70.71875 50.953125 70.207031 C 53.59375 69.511719 56.300781 70.707031 57.511719 73.09375 C 57.742188 73.554688 58.136719 73.882812 58.613281 74.046875 C 59.105469 74.203125 59.621094 74.167969 60.066406 73.933594 C 61.007812 73.457031 61.371094 72.320312 60.898438 71.386719 C 59.296875 68.199219 56.054688 66.214844 52.464844 66.214844 C 51.40625 66.214844 50.371094 66.398438 49.390625 66.71875 C 52.488281 64.5625 56.082031 66.066406 56.585938 66.300781 C 57.535156 66.71875 58.667969 66.3125 59.113281 65.363281 C 59.550781 64.414062 59.128906 63.289062 58.191406 62.851562 C 56.324219 61.988281 53.253906 61.3125 50.207031 62.175781 C 52.015625 60.972656 53.5 60.601562 53.605469 60.574219 C 54.613281 60.332031 55.253906 59.3125 55.007812 58.296875 C 54.78125 57.296875 53.757812 56.660156 52.738281 56.886719 C 52.488281 56.941406 48.328125 57.957031 44.710938 61.90625 C 45.949219 59.832031 47.160156 58.816406 47.242188 58.746094 C 48.042969 58.078125 48.164062 56.886719 47.515625 56.089844 C 47.1875 55.695312 46.742188 55.4375 46.21875 55.394531 C 45.722656 55.339844 45.230469 55.488281 44.832031 55.800781 C 44.386719 56.183594 40.335938 59.644531 38.78125 66.9375 C 38.441406 68.238281 38.023438 69.910156 37.613281 71.710938 C 37.222656 73.527344 36.824219 75.480469 36.539062 77.339844 C 35.679688 82.816406 30.023438 83.820312 29.777344 83.863281 C 29.585938 83.886719 29.410156 84.011719 29.316406 84.183594 C 29.21875 84.363281 29.210938 84.566406 29.289062 84.757812 C 29.410156 85.054688 32.496094 92.105469 37.804688 92.105469 C 38.023438 92.105469 38.265625 91.945312 38.390625 91.753906 C 39.53125 89.964844 41.625 88.835938 44.144531 88.675781 C 49.59375 88.3125 54.414062 85.636719 57.003906 83.886719 C 59.453125 82.546875 61.171875 80.226562 61.726562 77.515625 C 61.929688 76.5 61.265625 75.492188 60.246094 75.289062 " fill-opacity="1" fill-rule="nonzero"/></g><g clip-path="url(#id2)"><path fill="#f4f6fc" d="M 88.660156 69.960938 C 88.074219 73.664062 87.082031 77.769531 86.402344 80.324219 L 85.722656 82.84375 C 85.722656 82.855469 85.722656 82.855469 85.722656 82.855469 C 83.953125 88.078125 80.960938 90.5625 80.804688 90.683594 C 80.5625 90.886719 80.183594 90.84375 79.96875 90.589844 C 79.765625 90.328125 79.800781 89.964844 80.0625 89.746094 C 80.210938 89.625 83.867188 86.546875 85.242188 80.019531 C 85.3125 79.699219 85.121094 79.375 84.808594 79.28125 C 84.738281 79.253906 84.675781 79.253906 84.605469 79.253906 C 84.359375 79.253906 84.117188 79.402344 84.003906 79.644531 C 80.65625 87.574219 73.734375 89.269531 73.453125 89.339844 C 73.113281 89.40625 72.800781 89.21875 72.730469 88.894531 C 72.644531 88.566406 72.851562 88.253906 73.175781 88.171875 C 73.382812 88.121094 78.375 86.871094 81.667969 81.566406 C 81.84375 81.269531 81.773438 80.890625 81.488281 80.6875 C 81.203125 80.496094 80.804688 80.550781 80.605469 80.820312 C 76.949219 85.515625 71.492188 84.6875 68.84375 83.453125 C 68.695312 83.386719 68.582031 83.277344 68.527344 83.128906 C 68.46875 82.980469 68.46875 82.816406 68.542969 82.667969 C 68.675781 82.367188 69.042969 82.234375 69.339844 82.382812 C 69.65625 82.515625 76.878906 85.664062 80.714844 78.449219 C 80.863281 78.167969 80.785156 77.8125 80.523438 77.621094 C 80.265625 77.429688 79.914062 77.460938 79.679688 77.679688 C 78.15625 79.15625 76.132812 79.984375 74.007812 79.984375 C 70.910156 79.984375 68.128906 78.273438 66.734375 75.519531 C 66.664062 75.371094 66.652344 75.210938 66.691406 75.0625 C 66.75 74.910156 66.855469 74.789062 67.003906 74.707031 C 67.140625 74.640625 67.300781 74.628906 67.449219 74.679688 C 67.605469 74.734375 67.726562 74.828125 67.804688 74.976562 C 69.289062 77.921875 72.609375 79.386719 75.84375 78.542969 C 78.308594 77.90625 80.238281 75.890625 80.785156 73.40625 C 81.378906 70.667969 80.375 67.9375 78.128906 66.285156 C 75.84375 64.589844 72.878906 64.46875 70.203125 65.960938 C 68.335938 67.003906 67.589844 69.050781 67.195312 70.5 C 67.101562 70.816406 66.800781 70.988281 66.488281 70.9375 C 66.339844 70.898438 66.203125 70.816406 66.105469 70.675781 C 66.027344 70.542969 65.984375 70.378906 66.027344 70.230469 C 66.351562 68.648438 67.125 67.234375 68.242188 66.121094 C 68.257812 66.109375 68.257812 66.109375 68.257812 66.109375 C 68.320312 66.058594 74.8125 60.617188 82.425781 60.113281 C 85.214844 59.921875 87.585938 58.703125 89.007812 56.6875 C 92.398438 56.941406 94.804688 60.914062 95.648438 62.554688 C 93.796875 63.101562 89.433594 64.902344 88.660156 69.960938 Z M 97.1875 62.730469 C 97.0625 62.433594 93.976562 55.382812 88.667969 55.382812 C 88.453125 55.382812 88.207031 55.546875 88.085938 55.734375 C 86.941406 57.523438 84.847656 58.652344 82.332031 58.816406 C 76.878906 59.183594 72.078125 61.851562 69.46875 63.601562 C 67.019531 64.945312 65.304688 67.261719 64.746094 69.972656 C 64.652344 70.464844 64.746094 70.960938 65.015625 71.398438 C 65.304688 71.820312 65.738281 72.101562 66.226562 72.195312 C 67.207031 72.402344 68.171875 71.804688 68.449219 70.855469 C 68.992188 68.875 69.722656 67.710938 70.839844 67.101562 C 73.054688 65.867188 75.492188 65.945312 77.351562 67.328125 C 79.175781 68.675781 79.992188 70.898438 79.515625 73.117188 C 79.070312 75.140625 77.5 76.769531 75.519531 77.28125 C 72.878906 77.976562 70.171875 76.785156 68.964844 74.394531 C 68.730469 73.933594 68.335938 73.613281 67.863281 73.445312 C 67.371094 73.28125 66.855469 73.324219 66.410156 73.554688 C 65.957031 73.785156 65.617188 74.179688 65.453125 74.65625 C 65.304688 75.140625 65.347656 75.65625 65.574219 76.105469 C 67.195312 79.289062 70.421875 81.269531 74.007812 81.269531 C 75.070312 81.269531 76.105469 81.105469 77.066406 80.769531 C 73.984375 82.914062 70.394531 81.417969 69.890625 81.191406 C 68.9375 80.757812 67.804688 81.175781 67.359375 82.125 C 67.152344 82.585938 67.125 83.105469 67.300781 83.574219 C 67.480469 84.050781 67.832031 84.429688 68.285156 84.636719 C 70.148438 85.503906 73.21875 86.183594 76.28125 85.3125 C 74.457031 86.519531 72.976562 86.886719 72.871094 86.914062 C 71.859375 87.15625 71.222656 88.171875 71.464844 89.191406 C 71.695312 90.191406 72.714844 90.832031 73.734375 90.597656 C 73.984375 90.546875 78.144531 89.53125 81.761719 85.566406 C 80.523438 87.660156 79.3125 88.675781 79.234375 88.746094 C 78.425781 89.40625 78.308594 90.597656 78.957031 91.398438 C 79.339844 91.859375 79.882812 92.105469 80.445312 92.105469 C 80.863281 92.105469 81.285156 91.972656 81.640625 91.683594 C 81.789062 91.546875 85.066406 88.851562 86.957031 83.238281 C 86.957031 83.238281 86.96875 83.226562 86.96875 83.210938 C 87.246094 82.382812 87.488281 81.5 87.691406 80.566406 C 87.691406 80.550781 87.691406 80.550781 87.691406 80.550781 C 88.371094 77.960938 89.367188 73.867188 89.9375 70.152344 C 90.792969 64.667969 96.453125 63.667969 96.695312 63.625 C 96.882812 63.601562 97.0625 63.476562 97.160156 63.304688 C 97.253906 63.128906 97.265625 62.921875 97.1875 62.730469 " fill-opacity="1" fill-rule="nonzero"/></g><g fill="#ffffff" fill-opacity="1"><g transform="translate(108.936969, 85.983676)"><g><path d="M 13.609375 -0.59375 L 11.3125 -7.40625 L 5.078125 -7.40625 L 2.640625 -0.59375 L 5.015625 -0.59375 L 5.015625 0 L 0.1875 0 L 0.1875 -0.59375 L 1.671875 -0.59375 L 9.703125 -22.234375 L 12.28125 -22.234375 L 20.21875 -0.59375 L 21.671875 -0.59375 L 21.671875 0 L 11.375 0 L 11.375 -0.59375 Z M 8.3125 -16.34375 L 5.359375 -8.09375 L 11.0625 -8.09375 Z M 8.3125 -16.34375 "/></g></g></g><g fill="#ffffff" fill-opacity="1"><g transform="translate(130.797999, 85.983676)"><g><path d="M 11.09375 -14.421875 L 11.09375 -15 L 19.21875 -15 L 19.21875 -14.421875 L 17.921875 -14.421875 L 20.765625 -3.8125 L 23.5625 -14.421875 L 21.390625 -14.421875 L 21.390625 -15 L 25.640625 -15 L 25.640625 -14.421875 L 24.3125 -14.421875 L 20.53125 0 L 16.21875 0 L 13.484375 -9.671875 L 10.515625 0 L 6.296875 0 L 1.640625 -14.421875 L 0.21875 -14.421875 L 0.21875 -15 L 9.765625 -15 L 9.765625 -14.421875 L 7.875 -14.421875 L 10.765625 -3.71875 L 13.046875 -11.09375 L 12.25 -14.421875 Z M 11.09375 -14.421875 "/></g></g></g><g fill="#ffffff" fill-opacity="1"><g transform="translate(157.069031, 85.983676)"><g><path d="M 7.875 -7.40625 L 8.78125 -7.40625 L 8.78125 -9.828125 C 8.78125 -11.828125 8.671875 -13.164062 8.453125 -13.84375 C 8.234375 -14.53125 7.8125 -14.875 7.1875 -14.875 C 6.800781 -14.875 6.457031 -14.769531 6.15625 -14.5625 C 5.851562 -14.363281 5.703125 -14.09375 5.703125 -13.75 C 5.703125 -13.40625 5.765625 -13.050781 5.890625 -12.6875 L 6.671875 -12.6875 C 6.847656 -12.25 6.9375 -11.71875 6.9375 -11.09375 C 6.9375 -10.476562 6.671875 -9.941406 6.140625 -9.484375 C 5.617188 -9.035156 4.957031 -8.8125 4.15625 -8.8125 C 2.351562 -8.8125 1.453125 -9.6875 1.453125 -11.4375 C 1.453125 -14.019531 3.644531 -15.3125 8.03125 -15.3125 C 10.53125 -15.3125 12.253906 -14.882812 13.203125 -14.03125 C 14.160156 -13.175781 14.640625 -11.617188 14.640625 -9.359375 L 14.640625 -2.96875 C 14.640625 -1.875 14.945312 -1.328125 15.5625 -1.328125 C 16.269531 -1.328125 16.691406 -2.40625 16.828125 -4.5625 L 17.296875 -4.53125 C 17.210938 -2.6875 16.863281 -1.414062 16.25 -0.71875 C 15.644531 -0.03125 14.648438 0.3125 13.265625 0.3125 C 10.742188 0.3125 9.296875 -0.460938 8.921875 -2.015625 C 8.640625 -1.210938 8.222656 -0.625 7.671875 -0.25 C 7.128906 0.125 6.335938 0.3125 5.296875 0.3125 C 2.179688 0.3125 0.625 -0.957031 0.625 -3.5 C 0.625 -4.988281 1.21875 -6.007812 2.40625 -6.5625 C 3.59375 -7.125 5.414062 -7.40625 7.875 -7.40625 Z M 6.609375 -3.53125 C 6.609375 -2.4375 6.664062 -1.726562 6.78125 -1.40625 C 6.90625 -1.09375 7.128906 -0.9375 7.453125 -0.9375 C 7.773438 -0.9375 8.078125 -1.203125 8.359375 -1.734375 C 8.640625 -2.273438 8.78125 -3.019531 8.78125 -3.96875 L 8.78125 -6.90625 L 8.5625 -6.90625 C 7.257812 -6.90625 6.609375 -5.945312 6.609375 -4.03125 Z M 6.609375 -3.53125 "/></g></g></g><g fill="#ffffff" fill-opacity="1"><g transform="translate(174.362552, 85.983676)"><g><path d="M 7.875 -7.40625 L 8.78125 -7.40625 L 8.78125 -9.828125 C 8.78125 -11.828125 8.671875 -13.164062 8.453125 -13.84375 C 8.234375 -14.53125 7.8125 -14.875 7.1875 -14.875 C 6.800781 -14.875 6.457031 -14.769531 6.15625 -14.5625 C 5.851562 -14.363281 5.703125 -14.09375 5.703125 -13.75 C 5.703125 -13.40625 5.765625 -13.050781 5.890625 -12.6875 L 6.671875 -12.6875 C 6.847656 -12.25 6.9375 -11.71875 6.9375 -11.09375 C 6.9375 -10.476562 6.671875 -9.941406 6.140625 -9.484375 C 5.617188 -9.035156 4.957031 -8.8125 4.15625 -8.8125 C 2.351562 -8.8125 1.453125 -9.6875 1.453125 -11.4375 C 1.453125 -14.019531 3.644531 -15.3125 8.03125 -15.3125 C 10.53125 -15.3125 12.253906 -14.882812 13.203125 -14.03125 C 14.160156 -13.175781 14.640625 -11.617188 14.640625 -9.359375 L 14.640625 -2.96875 C 14.640625 -1.875 14.945312 -1.328125 15.5625 -1.328125 C 16.269531 -1.328125 16.691406 -2.40625 16.828125 -4.5625 L 17.296875 -4.53125 C 17.210938 -2.6875 16.863281 -1.414062 16.25 -0.71875 C 15.644531 -0.03125 14.648438 0.3125 13.265625 0.3125 C 10.742188 0.3125 9.296875 -0.460938 8.921875 -2.015625 C 8.640625 -1.210938 8.222656 -0.625 7.671875 -0.25 C 7.128906 0.125 6.335938 0.3125 5.296875 0.3125 C 2.179688 0.3125 0.625 -0.957031 0.625 -3.5 C 0.625 -4.988281 1.21875 -6.007812 2.40625 -6.5625 C 3.59375 -7.125 5.414062 -7.40625 7.875 -7.40625 Z M 6.609375 -3.53125 C 6.609375 -2.4375 6.664062 -1.726562 6.78125 -1.40625 C 6.90625 -1.09375 7.128906 -0.9375 7.453125 -0.9375 C 7.773438 -0.9375 8.078125 -1.203125 8.359375 -1.734375 C 8.640625 -2.273438 8.78125 -3.019531 8.78125 -3.96875 L 8.78125 -6.90625 L 8.5625 -6.90625 C 7.257812 -6.90625 6.609375 -5.945312 6.609375 -4.03125 Z M 6.609375 -3.53125 "/></g></g></g><g fill="#ffffff" fill-opacity="1"><g transform="translate(191.656073, 85.983676)"><g><path d="M 14.96875 -15 L 14.96875 -14.421875 L 7.5 -0.5625 L 7.90625 -0.5625 C 9.664062 -0.5625 11.050781 -1.023438 12.0625 -1.953125 C 13.070312 -2.878906 13.859375 -4.378906 14.421875 -6.453125 L 14.875 -6.453125 L 14.359375 0 L 1.140625 0 L 1.140625 -0.46875 L 8.71875 -14.421875 L 8.375 -14.421875 C 6.257812 -14.421875 4.785156 -14.070312 3.953125 -13.375 C 3.117188 -12.6875 2.378906 -11.210938 1.734375 -8.953125 L 1.328125 -8.953125 L 1.734375 -15 Z M 14.96875 -15 "/></g></g></g></svg>