<svg xmlns="http://www.w3.org/2000/svg" xmlns:xlink="http://www.w3.org/1999/xlink" width="167" zoomAndPan="magnify" viewBox="0 0 125.25 52.499999" height="70" preserveAspectRatio="xMidYMid meet" version="1.0"><defs><g/><clipPath id="id1"><path d="M 19.367188 15.601562 L 40.171875 15.601562 L 40.171875 36.402344 L 19.367188 36.402344 Z M 19.367188 15.601562 " clip-rule="nonzero"/></clipPath><clipPath id="id2"><path d="M 19.347656 20.371094 L 29.296875 20.371094 L 29.296875 31.503906 L 19.347656 31.503906 Z M 19.347656 20.371094 " clip-rule="nonzero"/></clipPath><clipPath id="id3"><path d="M 30.125 20.371094 L 40.078125 20.371094 L 40.078125 31.503906 L 30.125 31.503906 Z M 30.125 20.371094 " clip-rule="nonzero"/></clipPath></defs><g clip-path="url(#id1)"><path fill="#233dff" d="M 40.171875 34.324219 C 40.171875 35.472656 39.238281 36.402344 38.089844 36.402344 L 21.449219 36.402344 C 20.300781 36.402344 19.367188 35.472656 19.367188 34.324219 L 19.367188 17.679688 C 19.367188 16.53125 20.300781 15.601562 21.449219 15.601562 L 38.089844 15.601562 C 39.238281 15.601562 40.171875 16.53125 40.171875 17.679688 Z M 40.171875 34.324219 " fill-opacity="1" fill-rule="nonzero"/></g><g clip-path="url(#id2)"><path fill="#ffffff" d="M 28.863281 27.003906 C 28.761719 27.484375 28.527344 27.910156 28.1875 28.253906 C 28.183594 28.253906 28.183594 28.253906 28.183594 28.253906 C 28.164062 28.269531 26.183594 29.917969 23.867188 30.070312 C 23.011719 30.128906 22.292969 30.5 21.855469 31.113281 C 20.824219 31.03125 20.089844 29.828125 19.832031 29.332031 C 20.398438 29.167969 21.726562 28.617188 21.964844 27.085938 C 22.140625 25.957031 22.449219 24.710938 22.652344 23.933594 L 22.859375 23.179688 C 22.859375 23.175781 22.859375 23.175781 22.859375 23.175781 C 23.398438 21.589844 24.308594 20.839844 24.355469 20.800781 C 24.390625 20.773438 24.4375 20.761719 24.488281 20.765625 C 24.539062 20.769531 24.582031 20.792969 24.613281 20.832031 C 24.675781 20.910156 24.664062 21.023438 24.582031 21.085938 C 24.539062 21.121094 23.421875 22.050781 23.003906 24.035156 C 22.984375 24.132812 23.042969 24.230469 23.136719 24.261719 C 23.234375 24.292969 23.339844 24.242188 23.382812 24.148438 C 24.40625 21.738281 26.511719 21.230469 26.597656 21.207031 C 26.699219 21.1875 26.796875 21.246094 26.816406 21.34375 C 26.84375 21.445312 26.78125 21.539062 26.683594 21.5625 C 26.617188 21.578125 25.097656 21.957031 24.09375 23.566406 C 24.039062 23.65625 24.0625 23.769531 24.148438 23.832031 C 24.234375 23.890625 24.355469 23.875 24.417969 23.792969 C 25.53125 22.367188 27.195312 22.621094 28.003906 22.992188 C 28.097656 23.035156 28.136719 23.140625 28.097656 23.234375 C 28.054688 23.324219 27.941406 23.363281 27.851562 23.316406 C 27.757812 23.277344 25.554688 22.320312 24.382812 24.511719 C 24.339844 24.597656 24.363281 24.703125 24.441406 24.761719 C 24.523438 24.820312 24.628906 24.816406 24.699219 24.746094 C 25.164062 24.296875 25.78125 24.046875 26.429688 24.046875 C 27.375 24.046875 28.222656 24.566406 28.644531 25.398438 C 28.691406 25.488281 28.65625 25.601562 28.566406 25.644531 C 28.523438 25.667969 28.472656 25.671875 28.425781 25.65625 C 28.382812 25.636719 28.34375 25.609375 28.320312 25.5625 C 27.867188 24.671875 26.855469 24.226562 25.871094 24.484375 C 25.117188 24.675781 24.53125 25.289062 24.363281 26.039062 C 24.183594 26.871094 24.492188 27.699219 25.171875 28.199219 C 25.871094 28.714844 26.773438 28.75 27.589844 28.300781 C 28.15625 27.980469 28.386719 27.359375 28.503906 26.921875 C 28.535156 26.824219 28.621094 26.773438 28.722656 26.789062 C 28.820312 26.808594 28.882812 26.90625 28.863281 27.003906 Z M 28.800781 26.40625 C 28.503906 26.347656 28.207031 26.527344 28.125 26.8125 C 27.957031 27.414062 27.734375 27.765625 27.394531 27.953125 C 26.71875 28.328125 25.976562 28.300781 25.410156 27.882812 C 24.855469 27.476562 24.605469 26.800781 24.75 26.128906 C 24.886719 25.515625 25.363281 25.019531 25.96875 24.863281 C 26.773438 24.65625 27.597656 25.015625 27.964844 25.742188 C 28.039062 25.878906 28.15625 25.980469 28.304688 26.03125 C 28.453125 26.078125 28.609375 26.066406 28.746094 25.996094 C 29.03125 25.851562 29.144531 25.503906 29 25.222656 C 28.511719 24.257812 27.523438 23.65625 26.429688 23.65625 C 26.105469 23.65625 25.789062 23.710938 25.492188 23.808594 C 26.4375 23.152344 27.53125 23.609375 27.683594 23.679688 C 27.972656 23.808594 28.320312 23.683594 28.457031 23.398438 C 28.589844 23.109375 28.460938 22.765625 28.171875 22.636719 C 27.605469 22.375 26.667969 22.167969 25.738281 22.429688 C 26.292969 22.066406 26.742188 21.953125 26.777344 21.945312 C 27.082031 21.871094 27.277344 21.5625 27.203125 21.253906 C 27.132812 20.949219 26.824219 20.757812 26.511719 20.828125 C 26.4375 20.84375 25.167969 21.152344 24.066406 22.347656 C 24.441406 21.71875 24.8125 21.410156 24.835938 21.390625 C 25.082031 21.1875 25.117188 20.828125 24.921875 20.585938 C 24.820312 20.464844 24.683594 20.386719 24.523438 20.375 C 24.371094 20.359375 24.222656 20.402344 24.101562 20.496094 C 23.964844 20.613281 22.730469 21.660156 22.257812 23.875 C 22.152344 24.269531 22.027344 24.773438 21.902344 25.320312 C 21.78125 25.871094 21.660156 26.464844 21.574219 27.027344 C 21.3125 28.691406 19.585938 28.992188 19.511719 29.007812 C 19.453125 29.015625 19.402344 29.050781 19.371094 29.105469 C 19.34375 29.160156 19.339844 29.21875 19.363281 29.277344 C 19.402344 29.367188 20.34375 31.503906 21.960938 31.503906 C 22.027344 31.503906 22.101562 31.457031 22.136719 31.398438 C 22.484375 30.855469 23.125 30.515625 23.890625 30.464844 C 25.554688 30.355469 27.023438 29.542969 27.8125 29.015625 C 28.558594 28.609375 29.082031 27.902344 29.253906 27.082031 C 29.3125 26.773438 29.109375 26.46875 28.800781 26.40625 " fill-opacity="1" fill-rule="nonzero"/></g><g clip-path="url(#id3)"><path fill="#ffffff" d="M 37.460938 24.789062 C 37.28125 25.914062 36.980469 27.160156 36.773438 27.933594 L 36.566406 28.699219 C 36.027344 30.285156 35.113281 31.039062 35.066406 31.074219 C 34.992188 31.136719 34.878906 31.121094 34.8125 31.046875 C 34.75 30.96875 34.761719 30.855469 34.839844 30.789062 C 34.886719 30.753906 36 29.820312 36.417969 27.839844 C 36.441406 27.742188 36.382812 27.644531 36.285156 27.617188 C 36.265625 27.609375 36.246094 27.609375 36.226562 27.609375 C 36.152344 27.609375 36.078125 27.652344 36.042969 27.726562 C 35.023438 30.132812 32.910156 30.644531 32.828125 30.667969 C 32.722656 30.6875 32.628906 30.628906 32.605469 30.53125 C 32.578125 30.433594 32.644531 30.335938 32.742188 30.3125 C 32.804688 30.296875 34.324219 29.917969 35.328125 28.308594 C 35.382812 28.21875 35.363281 28.105469 35.273438 28.042969 C 35.1875 27.984375 35.066406 28.003906 35.007812 28.082031 C 33.890625 29.507812 32.230469 29.257812 31.421875 28.882812 C 31.375 28.863281 31.339844 28.828125 31.324219 28.785156 C 31.308594 28.738281 31.308594 28.691406 31.328125 28.644531 C 31.371094 28.554688 31.480469 28.511719 31.574219 28.558594 C 31.667969 28.597656 33.871094 29.550781 35.039062 27.363281 C 35.085938 27.277344 35.0625 27.171875 34.980469 27.113281 C 34.902344 27.054688 34.796875 27.066406 34.722656 27.132812 C 34.257812 27.578125 33.640625 27.832031 32.996094 27.832031 C 32.050781 27.832031 31.203125 27.3125 30.777344 26.476562 C 30.757812 26.429688 30.753906 26.382812 30.765625 26.335938 C 30.78125 26.292969 30.816406 26.253906 30.859375 26.230469 C 30.902344 26.210938 30.949219 26.207031 30.996094 26.222656 C 31.042969 26.238281 31.082031 26.265625 31.105469 26.3125 C 31.554688 27.207031 32.570312 27.648438 33.554688 27.394531 C 34.304688 27.199219 34.894531 26.589844 35.0625 25.835938 C 35.242188 25.003906 34.9375 24.175781 34.25 23.675781 C 33.554688 23.164062 32.652344 23.125 31.835938 23.578125 C 31.265625 23.894531 31.039062 24.515625 30.917969 24.953125 C 30.890625 25.050781 30.796875 25.101562 30.703125 25.085938 C 30.65625 25.074219 30.617188 25.050781 30.585938 25.007812 C 30.5625 24.96875 30.550781 24.917969 30.5625 24.871094 C 30.660156 24.394531 30.898438 23.964844 31.238281 23.625 C 31.242188 23.625 31.242188 23.625 31.242188 23.625 C 31.261719 23.605469 33.242188 21.957031 35.5625 21.804688 C 36.410156 21.746094 37.132812 21.378906 37.566406 20.765625 C 38.601562 20.84375 39.335938 22.046875 39.59375 22.546875 C 39.027344 22.710938 37.699219 23.257812 37.460938 24.789062 Z M 40.058594 22.597656 C 40.023438 22.507812 39.082031 20.371094 37.464844 20.371094 C 37.398438 20.371094 37.324219 20.421875 37.285156 20.476562 C 36.9375 21.019531 36.300781 21.363281 35.53125 21.410156 C 33.871094 21.523438 32.40625 22.332031 31.613281 22.863281 C 30.863281 23.269531 30.34375 23.972656 30.171875 24.792969 C 30.144531 24.945312 30.171875 25.09375 30.253906 25.226562 C 30.34375 25.355469 30.476562 25.441406 30.625 25.46875 C 30.921875 25.53125 31.214844 25.351562 31.300781 25.0625 C 31.464844 24.460938 31.6875 24.109375 32.03125 23.921875 C 32.703125 23.550781 33.449219 23.574219 34.015625 23.992188 C 34.570312 24.402344 34.820312 25.074219 34.675781 25.75 C 34.539062 26.363281 34.058594 26.855469 33.457031 27.011719 C 32.652344 27.222656 31.824219 26.859375 31.457031 26.136719 C 31.386719 25.996094 31.265625 25.898438 31.121094 25.847656 C 30.972656 25.796875 30.816406 25.8125 30.679688 25.878906 C 30.542969 25.949219 30.4375 26.070312 30.386719 26.214844 C 30.34375 26.363281 30.355469 26.519531 30.425781 26.652344 C 30.917969 27.621094 31.902344 28.21875 32.996094 28.21875 C 33.320312 28.21875 33.632812 28.171875 33.925781 28.066406 C 32.988281 28.71875 31.894531 28.265625 31.738281 28.195312 C 31.449219 28.066406 31.105469 28.191406 30.96875 28.480469 C 30.90625 28.617188 30.898438 28.777344 30.949219 28.917969 C 31.007812 29.0625 31.113281 29.179688 31.25 29.242188 C 31.820312 29.503906 32.753906 29.710938 33.6875 29.445312 C 33.132812 29.8125 32.679688 29.921875 32.648438 29.929688 C 32.339844 30.003906 32.144531 30.3125 32.21875 30.621094 C 32.289062 30.925781 32.601562 31.121094 32.910156 31.050781 C 32.988281 31.03125 34.257812 30.726562 35.359375 29.523438 C 34.980469 30.15625 34.613281 30.464844 34.589844 30.488281 C 34.34375 30.6875 34.304688 31.050781 34.503906 31.292969 C 34.621094 31.429688 34.785156 31.503906 34.957031 31.503906 C 35.085938 31.503906 35.214844 31.464844 35.320312 31.378906 C 35.367188 31.335938 36.367188 30.519531 36.941406 28.816406 C 36.941406 28.816406 36.945312 28.8125 36.945312 28.808594 C 37.03125 28.558594 37.105469 28.289062 37.167969 28.007812 C 37.167969 28.003906 37.167969 28.003906 37.167969 28.003906 C 37.375 27.214844 37.675781 25.976562 37.851562 24.847656 C 38.113281 23.1875 39.835938 22.882812 39.910156 22.871094 C 39.96875 22.863281 40.023438 22.824219 40.050781 22.773438 C 40.082031 22.71875 40.085938 22.65625 40.058594 22.597656 " fill-opacity="1" fill-rule="nonzero"/></g><g fill="#ffffff" fill-opacity="1"><g transform="translate(48.333535, 32.061355)"><g><path d="M 7.796875 -0.34375 L 6.46875 -4.234375 L 2.90625 -4.234375 L 1.515625 -0.34375 L 2.859375 -0.34375 L 2.859375 0 L 0.109375 0 L 0.109375 -0.34375 L 0.953125 -0.34375 L 5.546875 -12.734375 L 7.03125 -12.734375 L 11.578125 -0.34375 L 12.40625 -0.34375 L 12.40625 0 L 6.515625 0 L 6.515625 -0.34375 Z M 4.765625 -9.359375 L 3.0625 -4.640625 L 6.328125 -4.640625 Z M 4.765625 -9.359375 "/></g></g></g><g fill="#ffffff" fill-opacity="1"><g transform="translate(60.845601, 32.061355)"><g><path d="M 6.34375 -8.265625 L 6.34375 -8.578125 L 11 -8.578125 L 11 -8.265625 L 10.265625 -8.265625 L 11.875 -2.1875 L 13.484375 -8.265625 L 12.25 -8.265625 L 12.25 -8.578125 L 14.671875 -8.578125 L 14.671875 -8.265625 L 13.921875 -8.265625 L 11.75 0 L 9.28125 0 L 7.71875 -5.53125 L 6.015625 0 L 3.609375 0 L 0.9375 -8.265625 L 0.125 -8.265625 L 0.125 -8.578125 L 5.59375 -8.578125 L 5.59375 -8.265625 L 4.515625 -8.265625 L 6.171875 -2.125 L 7.46875 -6.34375 L 7.015625 -8.265625 Z M 6.34375 -8.265625 "/></g></g></g><g fill="#ffffff" fill-opacity="1"><g transform="translate(75.881715, 32.061355)"><g><path d="M 4.515625 -4.234375 L 5.03125 -4.234375 L 5.03125 -5.625 C 5.03125 -6.769531 4.96875 -7.535156 4.84375 -7.921875 C 4.71875 -8.316406 4.472656 -8.515625 4.109375 -8.515625 C 3.890625 -8.515625 3.691406 -8.457031 3.515625 -8.34375 C 3.347656 -8.226562 3.265625 -8.070312 3.265625 -7.875 C 3.265625 -7.675781 3.300781 -7.472656 3.375 -7.265625 L 3.828125 -7.265625 C 3.921875 -7.015625 3.96875 -6.710938 3.96875 -6.359375 C 3.96875 -6.003906 3.816406 -5.695312 3.515625 -5.4375 C 3.210938 -5.175781 2.832031 -5.046875 2.375 -5.046875 C 1.34375 -5.046875 0.828125 -5.546875 0.828125 -6.546875 C 0.828125 -8.023438 2.082031 -8.765625 4.59375 -8.765625 C 6.03125 -8.765625 7.019531 -8.519531 7.5625 -8.03125 C 8.113281 -7.539062 8.390625 -6.648438 8.390625 -5.359375 L 8.390625 -1.6875 C 8.390625 -1.0625 8.5625 -0.75 8.90625 -0.75 C 9.3125 -0.75 9.550781 -1.367188 9.625 -2.609375 L 9.90625 -2.59375 C 9.851562 -1.539062 9.648438 -0.8125 9.296875 -0.40625 C 8.953125 -0.0078125 8.382812 0.1875 7.59375 0.1875 C 6.144531 0.1875 5.316406 -0.257812 5.109375 -1.15625 C 4.953125 -0.695312 4.71875 -0.359375 4.40625 -0.140625 C 4.09375 0.078125 3.632812 0.1875 3.03125 0.1875 C 1.25 0.1875 0.359375 -0.539062 0.359375 -2 C 0.359375 -2.851562 0.695312 -3.4375 1.375 -3.75 C 2.050781 -4.070312 3.097656 -4.234375 4.515625 -4.234375 Z M 3.78125 -2.015625 C 3.78125 -1.390625 3.8125 -0.988281 3.875 -0.8125 C 3.945312 -0.632812 4.078125 -0.546875 4.265625 -0.546875 C 4.453125 -0.546875 4.625 -0.695312 4.78125 -1 C 4.945312 -1.300781 5.03125 -1.722656 5.03125 -2.265625 L 5.03125 -3.953125 L 4.90625 -3.953125 C 4.15625 -3.953125 3.78125 -3.40625 3.78125 -2.3125 Z M 3.78125 -2.015625 "/></g></g></g><g fill="#ffffff" fill-opacity="1"><g transform="translate(85.779592, 32.061355)"><g><path d="M 4.515625 -4.234375 L 5.03125 -4.234375 L 5.03125 -5.625 C 5.03125 -6.769531 4.96875 -7.535156 4.84375 -7.921875 C 4.71875 -8.316406 4.472656 -8.515625 4.109375 -8.515625 C 3.890625 -8.515625 3.691406 -8.457031 3.515625 -8.34375 C 3.347656 -8.226562 3.265625 -8.070312 3.265625 -7.875 C 3.265625 -7.675781 3.300781 -7.472656 3.375 -7.265625 L 3.828125 -7.265625 C 3.921875 -7.015625 3.96875 -6.710938 3.96875 -6.359375 C 3.96875 -6.003906 3.816406 -5.695312 3.515625 -5.4375 C 3.210938 -5.175781 2.832031 -5.046875 2.375 -5.046875 C 1.34375 -5.046875 0.828125 -5.546875 0.828125 -6.546875 C 0.828125 -8.023438 2.082031 -8.765625 4.59375 -8.765625 C 6.03125 -8.765625 7.019531 -8.519531 7.5625 -8.03125 C 8.113281 -7.539062 8.390625 -6.648438 8.390625 -5.359375 L 8.390625 -1.6875 C 8.390625 -1.0625 8.5625 -0.75 8.90625 -0.75 C 9.3125 -0.75 9.550781 -1.367188 9.625 -2.609375 L 9.90625 -2.59375 C 9.851562 -1.539062 9.648438 -0.8125 9.296875 -0.40625 C 8.953125 -0.0078125 8.382812 0.1875 7.59375 0.1875 C 6.144531 0.1875 5.316406 -0.257812 5.109375 -1.15625 C 4.953125 -0.695312 4.71875 -0.359375 4.40625 -0.140625 C 4.09375 0.078125 3.632812 0.1875 3.03125 0.1875 C 1.25 0.1875 0.359375 -0.539062 0.359375 -2 C 0.359375 -2.851562 0.695312 -3.4375 1.375 -3.75 C 2.050781 -4.070312 3.097656 -4.234375 4.515625 -4.234375 Z M 3.78125 -2.015625 C 3.78125 -1.390625 3.8125 -0.988281 3.875 -0.8125 C 3.945312 -0.632812 4.078125 -0.546875 4.265625 -0.546875 C 4.453125 -0.546875 4.625 -0.695312 4.78125 -1 C 4.945312 -1.300781 5.03125 -1.722656 5.03125 -2.265625 L 5.03125 -3.953125 L 4.90625 -3.953125 C 4.15625 -3.953125 3.78125 -3.40625 3.78125 -2.3125 Z M 3.78125 -2.015625 "/></g></g></g><g fill="#ffffff" fill-opacity="1"><g transform="translate(95.677469, 32.061355)"><g><path d="M 8.5625 -8.578125 L 8.5625 -8.265625 L 4.296875 -0.328125 L 4.53125 -0.328125 C 5.539062 -0.328125 6.332031 -0.585938 6.90625 -1.109375 C 7.476562 -1.640625 7.929688 -2.503906 8.265625 -3.703125 L 8.515625 -3.703125 L 8.21875 0 L 0.65625 0 L 0.65625 -0.265625 L 5 -8.265625 L 4.796875 -8.265625 C 3.578125 -8.265625 2.726562 -8.0625 2.25 -7.65625 C 1.78125 -7.257812 1.359375 -6.414062 0.984375 -5.125 L 0.75 -5.125 L 0.984375 -8.578125 Z M 8.5625 -8.578125 "/></g></g></g></svg>